<svg width="404" height="320" viewBox="0 0 404 320" fill="none" xmlns="http://www.w3.org/2000/svg">
<g clip-path="url(#clip0_231_14657)">
<path fill-rule="evenodd" clip-rule="evenodd" d="M384.285 111.636C384.285 137.976 378.653 162.998 368.523 185.561H38.6661C28.5362 162.99 22.9038 137.976 22.9038 111.636C22.9038 103.271 23.4753 95.0375 24.5769 86.9783L63.3076 70.0896L85.6051 81.2383L99.2883 72.6158L112.458 87.3179L149.955 117.211L183.906 96.9426L205.69 82.2488L227.482 98.4666L245.216 101.001L260.423 113.674L308.555 82.2571L327.812 90.366L357.714 70.0896L382.032 82.9943C383.515 92.329 384.293 101.896 384.293 111.645L384.285 111.636Z" fill="#005091"/>
<path d="M171.175 90.689C171.175 90.689 170.869 100.736 172.989 110.319L178.034 114.237L182.175 106.99L178.845 89.6288L171.175 90.689Z" fill="#BC9077"/>
<path d="M191.245 286.993V304.105L207.106 305.621L204.381 280.482L191.245 286.993Z" fill="#D4A181"/>
<path d="M228.6 283.812V308.843C228.6 308.843 244.951 306.217 244.653 305.613C244.346 305.008 241.016 278.254 241.016 278.254L228.6 283.804V283.812Z" fill="#D4A181"/>
<path d="M257.201 73.8831C257.201 73.8831 270.429 70.073 272.45 82.4062C274.471 94.7393 267.745 103.486 267.745 103.486C267.745 103.486 273.353 123.216 256.083 123.439C238.821 123.663 257.201 73.8831 257.201 73.8831Z" fill="#D89E1E"/>
<path d="M175.607 57.1103C175.607 57.1103 170.156 72.359 170.355 92.3373C170.355 92.3373 175.201 92.1385 180.046 97.3816C184.892 102.625 175.607 57.1103 175.607 57.1103Z" fill="#003366"/>
<path d="M203.744 28.3688C203.744 28.3688 195.071 32.4025 193.63 53.0351C192.189 73.6677 201.234 153.937 201.234 153.937C201.234 153.937 235.409 152.595 252.496 147.211C252.496 147.211 259.032 123.439 258.526 109.988C258.021 96.5367 273.104 57.5162 268.076 40.031C263.049 22.5376 203.744 28.3688 203.744 28.3688Z" fill="#B2831B"/>
<path d="M238.184 110.924C240.428 109.359 247.104 105.805 253.383 108.713C259.661 111.628 253.051 141.38 250.798 143.169C248.554 144.967 236.991 148.197 232.734 146.631C228.476 145.066 236.867 131.308 238.184 110.916V110.924Z" fill="#FCBA19"/>
<path d="M194.301 32.8747C195.51 30.2656 197.805 28.0044 200.712 26.5797C204 24.9646 210.602 23.515 215.654 24.2191C249.548 25.6023 267.588 30.9199 267.588 30.9199L247.717 53.4907C247.717 53.4907 201.035 46.6077 198.608 42.7313C196.214 41.7456 194.309 40.0973 193.696 37.9521C193.216 36.2707 193.556 34.4898 194.301 32.883V32.8747Z" fill="#FCBA19"/>
<path d="M271.688 38.0101C271.63 41.3315 270.594 46.6574 268.333 49.0842C264.772 52.9109 259.28 53.938 254.112 54.6669C248.943 55.3958 242.988 52.5382 241.795 47.4525C241.298 45.3404 241.646 43.0957 242.424 41.0747C243.683 37.7864 246.077 34.9454 249.109 33.1563C255.147 29.5781 271.887 26.646 271.688 38.0101Z" fill="#D89E1E"/>
<path d="M169.552 160.87V167.686C175.408 194.084 188.677 238.397 188.677 238.397C188.677 238.397 188.18 259.891 189.083 270.792C189.994 281.692 190.093 287.954 190.947 288.301C191.8 288.649 206.336 289.262 207.347 287.192C208.357 285.121 206.286 215.818 206.286 215.818C206.286 215.818 216.988 237.478 219.812 241.114C223.647 279.273 227.689 286.736 227.689 286.736C227.689 286.736 233.139 287.341 237.181 286.736C241.215 286.131 244.653 284.317 244.653 284.317C244.653 284.317 240.213 224.648 233.752 215.826C231.938 205.995 226.488 160.87 226.488 160.87C226.488 160.87 221.643 153.705 210.138 157.54C198.633 161.375 186.515 165.011 169.56 160.87H169.552Z" fill="#003366"/>
<path d="M186.01 67.0995L178.911 102.923C175.623 78.8694 173.743 60.5312 175.615 57.1186C175.797 56.7873 176.128 56.4394 176.567 56.0833L180.551 56.0087L179.847 58.5184L186.002 67.116L186.01 67.0995Z" fill="#38598A"/>
<path d="M208.009 57.3174L201.449 56.7045L199.552 60.0756L189.34 66.3954C189.34 66.3954 199.13 98.4915 199.031 108.787C198.931 119.083 192.653 165.972 192.653 165.972C169.668 171.306 168.069 162.013 168.069 162.013C168.069 162.013 173.569 129.42 178.903 102.915L186.002 67.0912L179.847 58.4936L180.551 55.9838L176.567 56.0584C178.307 54.6586 181.827 53.1097 185.306 51.801C190.027 50.0119 194.657 48.6618 194.657 48.6618L202.277 46.5911L203.288 46.3177C203.288 46.3177 205.326 47.0301 208.274 48.2808C208.398 48.5541 208.49 48.8275 208.539 49.1091C209.144 52.5465 208.009 57.2925 208.009 57.2925V57.3174Z" fill="white"/>
<path d="M173.387 308.445C178.688 305.869 188.023 297.744 190.044 292.899C190.151 292.567 190.516 291.391 191.087 291.358C192.164 291.3 195.494 295.922 194.989 298.349C197.863 297.943 199.735 301.065 202.153 300.27C205.135 299.285 205.036 295.98 206.543 295.88C209.417 295.88 211.322 317.499 209.227 319.594C209.227 319.594 199.95 320.572 196.918 319.147C195.519 320.356 170.968 319.925 170.968 319.925C169.949 319.495 164.963 318.435 164.963 314.351C164.963 311.676 168.094 311.021 173.395 308.445H173.387Z" fill="#313132"/>
<path d="M210.792 308.445C216.093 305.869 225.428 297.744 227.449 292.899C227.557 292.567 227.921 291.391 228.493 291.358C229.569 291.3 232.899 295.922 232.394 298.349C235.268 297.943 237.14 301.065 239.559 300.27C242.54 299.285 242.441 295.98 243.948 295.88C246.823 295.88 248.728 317.499 246.632 319.594C246.632 319.594 237.355 320.572 234.324 319.147C232.924 320.356 208.374 319.925 208.374 319.925C207.355 319.495 202.369 318.435 202.369 314.351C202.369 311.676 205.499 311.021 210.8 308.445H210.792Z" fill="#313132"/>
<path d="M185.546 47.6513C185.546 47.6513 185.43 54.3107 184.486 55.901C183.542 57.4913 185.811 61.0115 188.536 61.0115C191.261 61.0115 192.885 59.7111 194.839 58.4687C196.794 57.2263 203.47 49.2499 203.47 49.2499L198.459 35.3678C198.459 35.3678 205.259 31.9801 205.491 29.4621C205.723 26.9441 207.173 22.7364 203.371 20.5829C199.569 18.4294 194.616 21.3035 194.21 20.9556C193.804 20.6077 189.621 13.3188 187.393 12.9544C185.165 12.5899 176.369 13.7661 174.488 11.9273C174.488 11.9273 171.101 29.8597 171.995 37.8444C172.89 45.8291 175.648 47.2785 178.373 48.1814C181.098 49.0925 185.546 47.6513 185.546 47.6513Z" fill="#D4A181"/>
<path d="M133.894 130.894C133.894 130.894 122.828 130.67 118.761 126.165C114.703 121.659 110.189 111.289 112.715 107.768L122.729 113.359C122.729 113.359 119.258 110.7 120.782 104.745C120.782 104.745 124.253 110.56 128.676 112.183C133.099 113.807 133.074 119.298 135.46 121.145" fill="#BC9077"/>
<path d="M148.986 65.2938H81.621C81.621 65.2938 125.578 115.488 129.744 144.254H186.01C186.01 144.254 165.518 81.9009 148.986 65.2938Z" fill="#FCBA19"/>
<path d="M172.981 20.2516C171.913 21.5437 167.721 18.388 167.854 13.4679C168.036 10.9665 170.364 10.9914 174.041 5.72346C177.719 0.463842 187.625 -0.969093 190.317 0.588085C191.667 1.36667 195.742 4.24083 198.393 3.22203C201.043 2.20324 204.829 7.91842 206.452 8.9869C209.699 11.1239 209.426 15.9114 208.887 23.076C208.357 30.249 203.338 34.4484 202.244 36.809C201.151 39.1779 201.433 41.6876 200.629 41.6711C199.826 41.6545 198.07 35.1028 198.07 35.1028C198.07 35.1028 205.011 31.5246 204.597 27.6399C204.191 23.7552 202.832 23.1423 202.037 23.1257C201.242 23.1092 200.737 26.3643 199.014 27.5488C197.283 28.7332 192.529 25.2793 192.52 23.1009C192.512 20.9142 184.105 21.2455 184.32 17.5431C184.536 13.8407 176.443 20.3841 176.642 14.9671C174.306 14.7352 174.049 18.9512 172.981 20.2433V20.2516Z" fill="#313132"/>
<path d="M208.009 57.3174L201.449 56.7045L199.552 60.0756L189.34 66.3954C189.34 66.3954 193.456 54.377 200.637 51.0804C202.344 50.1776 202.559 48.3554 202.277 46.6242C201.921 44.4459 200.778 42.3834 200.778 42.3834C200.778 42.3834 206.825 45.1913 208.274 48.314C208.398 48.5873 208.49 48.8606 208.539 49.1422C209.144 52.5796 208.009 57.3257 208.009 57.3257V57.3174Z" fill="#003366"/>
<path d="M179.856 58.5018L180.56 55.9921L176.576 56.0667H176.228L185.472 49.8214L185.314 51.8093L185.273 52.3642C185.993 57.8309 186.018 67.0912 186.018 67.0912L179.864 58.4936L179.856 58.5018Z" fill="#003366"/>
<path d="M240.122 92.942C240.122 92.942 234.531 70.5866 228.725 61.8978C224.79 56.0087 214.495 50.9562 208.274 48.3057C208.398 48.579 208.49 48.8523 208.539 49.1339C209.144 52.5713 208.009 57.3174 208.009 57.3174L201.449 56.7045L199.552 60.0756L189.34 66.3954L192.048 180.161C215.033 174.818 217.385 172.267 228.899 176.052L234.647 121.808L233.032 95.5925C233.032 95.5925 235.334 94.8885 240.122 92.942Z" fill="#38598A"/>
<path d="M224.55 111.048C224.55 111.048 222.761 110.717 219.324 95.5759C215.894 80.4349 225.378 57.4499 227.648 57.1021C228.253 55.7437 220.458 51.155 218.031 51.4614C215.605 51.7679 210.328 66.3043 209.997 75.987C209.666 85.6696 212.151 108.29 219.183 114.436L221.659 116.871L225.751 114.9L224.542 111.04L224.55 111.048Z" fill="#FCBA19"/>
<path d="M189.795 118.362C186.946 117.36 185.231 112.142 180.527 112.001C175.822 111.86 170.687 107.437 170.687 107.437C171.117 113.566 175.25 114.991 175.25 114.991L163.986 112.854C162.702 116.987 170.256 125.403 175.532 128.401C180.808 131.399 191.385 128.111 191.385 128.111C191.385 128.111 192.876 127.448 194.806 128.26C197.333 129.37 232.7 129.196 239.509 124.906C241.025 124.152 241.099 113.218 241.099 113.218L239.211 93.1325C226.488 87.3759 220.433 95.8575 220.433 95.8575C220.433 95.8575 224.045 106.965 224.169 111.603C223.159 116.349 189.795 118.354 189.795 118.354V118.362Z" fill="#D4A181"/>
<path d="M283.085 191.317C281.263 191.79 279.581 192.792 277.85 193.587C274.695 195.028 271.357 195.674 267.936 195.956C266.644 196.064 265.534 195.641 264.888 194.39C264.25 193.156 264.457 191.964 265.318 190.994C266.304 189.893 267.414 188.891 268.557 187.955C270.595 186.29 272.649 184.65 274.786 183.126C275.846 182.38 277.088 181.883 278.289 181.353C280.94 180.177 283.615 179.059 286.266 177.891C286.68 177.709 287.293 177.593 287.227 176.93C287.185 176.541 285.934 175.911 285.479 176.036C284.882 176.201 284.294 176.408 283.715 176.607C279.217 178.156 274.761 179.846 270.081 180.823C268.631 181.121 267.141 181.304 265.658 181.353C262.825 181.444 261.848 179.771 263.132 177.237C264.283 174.975 266.279 173.642 268.391 172.457C271.82 170.536 275.539 169.285 279.242 167.993C281.412 167.231 283.557 166.37 285.694 165.533C286.034 165.4 286.357 165.177 286.63 164.937C286.788 164.796 286.837 164.531 286.928 164.315C286.713 164.224 286.498 164.059 286.282 164.059C285.893 164.059 285.487 164.125 285.106 164.224C282.762 164.854 280.418 165.5 278.074 166.129C275.556 166.809 273.038 167.488 270.404 167.413C269.89 167.397 269.36 167.355 268.863 167.214C266.842 166.651 266.13 164.489 267.439 162.858C267.853 162.344 268.35 161.822 268.921 161.541C270.851 160.596 272.789 159.644 274.81 158.907C278.438 157.581 282.133 156.422 285.777 155.146C286.423 154.923 287.011 154.517 287.583 154.136C288.071 153.813 288.469 153.349 288.278 152.703C288.08 152.024 287.458 151.899 286.895 151.949C285.57 152.065 284.228 152.181 282.928 152.479C280.203 153.109 277.511 153.887 274.786 154.525C273.585 154.807 272.35 154.997 271.125 155.08C269.675 155.171 269.211 154.368 269.948 153.109C271.116 151.104 272.707 149.431 274.628 148.189C277.204 146.524 279.904 145.049 282.555 143.484C284.336 142.432 285.785 141.024 286.92 139.301C287.011 139.16 287.135 139.003 287.144 138.837C287.169 138.581 287.193 138.266 287.069 138.084C286.986 137.968 286.597 137.984 286.398 138.059C285.446 138.415 284.535 138.879 283.565 139.185C281.702 139.765 279.813 140.254 277.925 140.775C277.784 140.817 277.627 140.809 277.478 140.809C275.746 140.809 274.968 139.864 275.622 138.274C276.136 137.007 276.782 135.706 277.668 134.679C280.203 131.731 282.803 128.823 285.545 126.073C288.129 123.481 290.937 121.095 293.662 118.644C294.118 118.23 294.648 117.882 295.186 117.592C295.7 117.31 296.263 116.987 296.818 116.937C298.094 116.83 299.452 116.598 300.636 116.937C302.152 117.368 303.693 118.089 304.944 119.05C308.431 121.741 311.81 124.591 315.173 127.44C316.987 128.981 318.718 130.612 320.408 132.277C321.103 132.965 321.683 133.801 322.18 134.646C323.481 136.883 322.404 138.647 319.82 138.696C317.285 138.746 315.082 137.777 312.945 136.576C312.092 136.096 311.272 135.549 310.443 135.027C310.377 135.06 310.303 135.093 310.236 135.127C310.385 135.864 310.46 136.617 310.7 137.322C311.512 139.682 313.243 141.306 315.206 142.705C317.989 144.693 321.112 146.043 324.16 147.543C325.551 148.23 326.926 148.992 328.202 149.87C329.254 150.599 329.229 151.386 328.318 152.289C326.918 153.672 325.104 154.011 323.257 154.127C319.944 154.351 316.813 153.523 313.781 152.256C312.994 151.924 312.208 151.593 311.421 151.262C311.363 151.353 311.305 151.436 311.247 151.527C311.81 152.007 312.34 152.529 312.936 152.951C317.36 156.074 322.213 158.377 327.208 160.414C328.442 160.919 329.709 161.392 330.852 162.071C332.575 163.098 332.923 164.705 332.037 166.51C331.639 167.322 331.001 167.72 330.123 167.852C328.227 168.142 326.404 167.72 324.624 167.198C321.46 166.278 318.32 165.251 315.173 164.291C314.634 164.125 314.063 164.034 313.5 163.959C313.309 163.934 313.102 164.067 312.903 164.133C313.011 164.34 313.061 164.63 313.226 164.73C314.576 165.55 315.927 166.394 317.335 167.123C321.161 169.111 325.038 171.008 328.848 173.037C330.306 173.816 331.647 174.818 332.989 175.795C333.569 176.218 334.157 176.748 333.95 177.659C333.718 178.694 333.064 179.44 332.07 179.514C330.728 179.614 329.328 179.614 328.028 179.332C324.375 178.545 320.756 177.568 317.111 176.707C316.655 176.599 316.134 176.74 315.645 176.756C315.802 177.228 315.819 177.833 316.134 178.148C317.418 179.448 318.668 180.823 320.151 181.867C322.901 183.805 325.825 185.511 328.641 187.367C329.983 188.253 331.266 189.23 332.55 190.199C332.915 190.481 333.221 190.862 333.495 191.243C334.083 192.038 333.975 192.477 333.064 192.817C329.229 194.241 325.344 194.664 321.344 193.454C318.759 192.676 316.15 191.93 313.508 191.392C310.518 190.779 307.751 189.586 304.935 188.493C304.546 188.344 301.349 186.53 296.975 187.068C291.749 187.714 285.106 190.787 283.102 191.309L283.085 191.317Z" fill="#003366"/>
<path d="M294.441 196.387C294.441 196.387 301.166 197.546 302.003 196.387C302.831 195.227 298.226 163.156 298.226 163.156L294.449 196.387H294.441Z" fill="#B2831B"/>
<path d="M84.1722 191.641C82.3085 192.121 80.5774 193.156 78.8049 193.968C75.5746 195.442 72.1454 196.105 68.6418 196.395C67.3165 196.503 66.1818 196.072 65.5192 194.788C64.8648 193.521 65.0802 192.303 65.9582 191.309C66.9687 190.183 68.1034 189.147 69.2796 188.195C71.3669 186.489 73.4707 184.807 75.6657 183.25C76.7507 182.48 78.0263 181.983 79.2604 181.436C81.9772 180.235 84.7188 179.084 87.4439 177.891C87.8746 177.7 88.4958 177.585 88.4295 176.905C88.3881 176.508 87.1043 175.862 86.6322 175.986C86.0192 176.152 85.4229 176.367 84.8182 176.574C80.2047 178.156 75.6325 179.895 70.845 180.889C69.3624 181.196 67.8301 181.378 66.3143 181.428C63.4153 181.519 62.4048 179.804 63.7218 177.212C64.8979 174.893 66.9521 173.526 69.1139 172.308C72.6341 170.337 76.4443 169.053 80.2378 167.728C82.4659 166.949 84.6609 166.063 86.8558 165.202C87.2037 165.069 87.535 164.837 87.8083 164.589C87.974 164.44 88.0154 164.166 88.1148 163.951C87.8912 163.86 87.6675 163.694 87.4522 163.694C87.0546 163.694 86.6405 163.76 86.2512 163.86C83.8491 164.506 81.4471 165.168 79.0451 165.815C76.4691 166.51 73.8849 167.206 71.1764 167.123C70.6463 167.107 70.0996 167.065 69.5943 166.924C67.5236 166.345 66.7864 164.133 68.1365 162.46C68.559 161.938 69.0725 161.392 69.6606 161.11C71.6402 160.141 73.6281 159.163 75.6905 158.41C79.4095 157.051 83.1948 155.859 86.9386 154.558C87.6013 154.326 88.2059 153.912 88.794 153.523C89.291 153.191 89.7051 152.719 89.5146 152.048C89.3158 151.353 88.6698 151.22 88.0982 151.278C86.7399 151.402 85.3566 151.518 84.0314 151.825C81.2317 152.471 78.4736 153.266 75.6822 153.929C74.4564 154.219 73.1891 154.417 71.9218 154.492C70.4392 154.583 69.9671 153.763 70.7208 152.471C71.9135 150.417 73.5453 148.702 75.5166 147.427C78.1588 145.72 80.9253 144.205 83.6421 142.606C85.4726 141.529 86.9469 140.088 88.1231 138.324C88.2225 138.175 88.3384 138.017 88.355 137.852C88.3799 137.595 88.4047 137.264 88.2805 137.081C88.1976 136.965 87.8001 136.974 87.593 137.056C86.6156 137.421 85.6796 137.901 84.6857 138.208C82.7724 138.796 80.8342 139.301 78.9043 139.84C78.7635 139.881 78.5978 139.873 78.4487 139.873C76.6762 139.873 75.881 138.904 76.5436 137.272C77.0737 135.971 77.7281 134.638 78.6392 133.586C81.24 130.563 83.8988 127.581 86.715 124.765C89.3655 122.106 92.2397 119.662 95.031 117.144C95.5031 116.722 96.0415 116.366 96.5964 116.059C97.1266 115.77 97.6981 115.438 98.2696 115.389C99.57 115.273 100.97 115.041 102.187 115.389C103.745 115.827 105.318 116.573 106.602 117.559C110.18 120.317 113.643 123.241 117.088 126.165C118.944 127.738 120.724 129.42 122.456 131.126C123.168 131.83 123.764 132.683 124.269 133.553C125.603 135.847 124.501 137.653 121.843 137.703C119.242 137.752 116.981 136.767 114.794 135.524C113.916 135.027 113.079 134.472 112.226 133.934C112.152 133.967 112.085 134 112.011 134.033C112.16 134.787 112.234 135.566 112.483 136.286C113.311 138.705 115.092 140.37 117.105 141.811C119.954 143.848 123.16 145.232 126.282 146.772C127.715 147.476 129.123 148.255 130.432 149.158C131.517 149.903 131.484 150.715 130.548 151.634C129.115 153.051 127.251 153.399 125.363 153.523C121.967 153.746 118.761 152.902 115.647 151.601C114.835 151.262 114.032 150.922 113.22 150.582C113.162 150.673 113.096 150.765 113.038 150.856C113.618 151.344 114.156 151.883 114.769 152.313C119.3 155.519 124.278 157.871 129.397 159.967C130.664 160.489 131.964 160.969 133.132 161.665C134.896 162.717 135.253 164.365 134.35 166.212C133.936 167.049 133.29 167.455 132.387 167.595C130.44 167.894 128.577 167.455 126.746 166.924C123.499 165.98 120.285 164.928 117.055 163.943C116.5 163.777 115.92 163.678 115.341 163.603C115.15 163.578 114.935 163.719 114.728 163.785C114.835 163.992 114.885 164.299 115.059 164.398C116.45 165.243 117.825 166.104 119.267 166.85C123.193 168.888 127.168 170.834 131.07 172.913C132.561 173.708 133.944 174.735 135.311 175.737C135.907 176.168 136.503 176.715 136.296 177.642C136.056 178.711 135.393 179.473 134.366 179.548C132.991 179.647 131.558 179.655 130.225 179.365C126.473 178.554 122.77 177.56 119.035 176.673C118.563 176.566 118.032 176.707 117.536 176.731C117.693 177.22 117.718 177.833 118.032 178.164C119.349 179.498 120.633 180.906 122.149 181.974C124.974 183.962 127.964 185.71 130.854 187.607C132.229 188.51 133.546 189.512 134.863 190.514C135.244 190.804 135.551 191.193 135.832 191.583C136.429 192.403 136.321 192.842 135.393 193.189C131.459 194.655 127.475 195.078 123.375 193.844C120.724 193.04 118.049 192.278 115.341 191.723C112.276 191.094 109.435 189.876 106.552 188.75C106.155 188.592 102.875 186.737 98.3938 187.292C93.0348 187.955 86.2263 191.102 84.1722 191.641Z" fill="#00447C"/>
<path d="M95.8179 196.842C95.8179 196.842 102.717 198.027 103.571 196.842C104.424 195.658 99.6942 162.766 99.6942 162.766L95.8179 196.842Z" fill="#B2831B"/>
<path d="M11.0925 180.831C10.1565 181.072 9.29507 181.585 8.4088 181.991C6.79365 182.728 5.07909 183.059 3.32313 183.209C2.6605 183.267 2.09727 183.043 1.76595 182.405C1.43464 181.776 1.54231 181.163 1.98959 180.666C2.49484 180.102 3.05808 179.589 3.64616 179.109C4.6898 178.255 5.74172 177.411 6.84334 176.632C7.38173 176.251 8.02779 175.994 8.64072 175.721C9.99911 175.116 11.3741 174.545 12.7325 173.948C12.9478 173.857 13.2626 173.799 13.2211 173.46C13.2046 173.261 12.5585 172.938 12.3266 173.004C12.0201 173.087 11.7219 173.195 11.4238 173.294C9.12113 174.089 6.83506 174.959 4.43303 175.456C3.68757 175.613 2.92555 175.704 2.16353 175.729C0.714028 175.779 0.208773 174.917 0.871402 173.617C1.45949 172.457 2.48656 171.77 3.56333 171.165C5.3193 170.18 7.22436 169.542 9.12113 168.871C10.2393 168.482 11.3327 168.043 12.4343 167.612C12.6082 167.546 12.7739 167.43 12.9147 167.305C12.9975 167.231 13.0224 167.098 13.0721 166.991C12.9644 166.941 12.8484 166.858 12.7407 166.858C12.542 166.858 12.3349 166.891 12.1361 166.941C10.9351 167.264 9.73406 167.595 8.53305 167.918C7.24092 168.266 5.9488 168.614 4.59869 168.573C4.33364 168.573 4.0603 168.54 3.81182 168.473C2.77646 168.183 2.41201 167.082 3.08293 166.245C3.29828 165.98 3.54677 165.715 3.84495 165.566C4.83061 165.086 5.83284 164.597 6.85991 164.216C8.72355 163.537 10.612 162.94 12.484 162.286C12.8153 162.17 13.1135 161.963 13.4117 161.764C13.6601 161.599 13.8672 161.358 13.7678 161.027C13.6684 160.679 13.3454 160.613 13.0555 160.638C12.3763 160.696 11.6888 160.762 11.0262 160.911C9.62638 161.234 8.25143 161.632 6.85163 161.963C6.2387 162.112 5.60092 162.203 4.97142 162.245C4.22596 162.294 3.99404 161.88 4.36677 161.234C4.96314 160.207 5.77486 159.354 6.7688 158.708C8.08577 157.855 9.47729 157.101 10.8274 156.298C11.7385 155.759 12.484 155.039 13.0638 154.152C13.1135 154.078 13.1714 153.995 13.1797 153.912C13.1963 153.78 13.2046 153.622 13.1383 153.523C13.0969 153.465 12.8981 153.473 12.7904 153.506C12.3017 153.688 11.8379 153.929 11.3409 154.078C10.3884 154.376 9.41931 154.624 8.45022 154.889C8.37567 154.906 8.30113 154.906 8.22658 154.906C7.34032 154.906 6.94274 154.426 7.27405 153.606C7.5391 152.951 7.87042 152.289 8.31769 151.767C9.6181 150.259 10.9516 148.768 12.3597 147.352C13.685 146.027 15.1179 144.801 16.5177 143.542C16.7496 143.335 17.023 143.153 17.3046 143.004C17.5696 142.854 17.8513 142.689 18.1412 142.664C18.7955 142.606 19.4913 142.49 20.0959 142.664C20.8745 142.888 21.6614 143.252 22.2992 143.749C24.0883 145.132 25.8194 146.59 27.5422 148.048C28.4699 148.835 29.3562 149.671 30.2259 150.533C30.582 150.881 30.8802 151.311 31.137 151.75C31.7996 152.902 31.2529 153.796 29.9277 153.829C28.6273 153.854 27.5008 153.357 26.4075 152.744C25.9685 152.496 25.5543 152.214 25.1236 151.949C25.0905 151.966 25.0491 151.982 25.0159 151.999C25.0905 152.371 25.1319 152.761 25.2561 153.125C25.6703 154.335 26.5566 155.163 27.5671 155.883C28.9917 156.902 30.5903 157.598 32.1558 158.36C32.8681 158.708 33.5721 159.105 34.2265 159.553C34.7649 159.925 34.7483 160.331 34.2845 160.795C33.5639 161.507 32.6362 161.673 31.6919 161.739C29.9939 161.855 28.3871 161.433 26.8382 160.779C26.4323 160.613 26.0264 160.439 25.6289 160.265C25.5957 160.306 25.5709 160.356 25.5378 160.398C25.8277 160.646 26.101 160.911 26.4075 161.126C28.677 162.725 31.1618 163.91 33.7212 164.953C34.3507 165.21 35.0051 165.45 35.5932 165.806C36.4794 166.328 36.6534 167.156 36.1978 168.084C35.9907 168.498 35.6677 168.705 35.2204 168.772C34.2513 168.921 33.3154 168.705 32.4042 168.44C30.7808 167.968 29.1739 167.446 27.5588 166.949C27.2854 166.866 26.9873 166.817 26.7056 166.775C26.6062 166.759 26.4986 166.833 26.3992 166.866C26.4572 166.974 26.482 167.123 26.5648 167.173C27.2606 167.595 27.9481 168.026 28.6687 168.399C30.6317 169.418 32.6196 170.387 34.5661 171.43C35.3115 171.828 35.999 172.341 36.6865 172.838C36.9847 173.054 37.2829 173.327 37.1752 173.791C37.0509 174.321 36.7196 174.702 36.2061 174.743C35.5186 174.793 34.798 174.793 34.1354 174.652C32.2634 174.247 30.4081 173.75 28.5444 173.311C28.3125 173.253 28.0475 173.327 27.7907 173.335C27.8735 173.576 27.8818 173.89 28.0392 174.048C28.6935 174.71 29.3396 175.423 30.1016 175.953C31.5097 176.947 33.0089 177.825 34.4501 178.769C35.1376 179.225 35.8002 179.721 36.4546 180.218C36.6451 180.359 36.7942 180.558 36.9433 180.757C37.2414 181.163 37.1917 181.386 36.7196 181.56C34.7483 182.289 32.7604 182.505 30.7063 181.883C29.381 181.486 28.0475 181.105 26.6891 180.823C25.1567 180.508 23.7404 179.895 22.2909 179.34C22.0921 179.266 20.4521 178.338 18.2074 178.612C15.5238 178.943 12.1195 180.517 11.0925 180.782V180.831Z" fill="#00447C"/>
<path d="M16.9153 183.432C16.9153 183.432 20.361 184.029 20.7917 183.432C21.2224 182.836 18.8535 166.394 18.8535 166.394L16.9153 183.432Z" fill="#B2831B"/>
<path d="M35.7672 205.05C33.8787 205.539 32.1393 206.583 30.3419 207.403C27.0702 208.894 23.6079 209.565 20.0629 209.863C18.721 209.971 17.578 209.532 16.9071 208.239C16.2445 206.964 16.4598 205.721 17.3544 204.719C18.3732 203.576 19.5245 202.541 20.7089 201.563C22.8211 199.841 24.9498 198.134 27.1696 196.561C28.2629 195.782 29.5633 195.277 30.7975 194.722C33.5474 193.504 36.3221 192.345 39.072 191.135C39.5027 190.945 40.1405 190.829 40.066 190.141C40.0246 189.735 38.7242 189.089 38.252 189.214C37.6308 189.379 37.0262 189.603 36.4215 189.81C31.7583 191.417 27.1364 193.173 22.291 194.175C20.7918 194.49 19.2429 194.672 17.7105 194.722C14.7784 194.813 13.7596 193.082 15.0932 190.456C16.2859 188.112 18.3566 186.729 20.5433 185.503C24.1049 183.507 27.9564 182.215 31.7914 180.873C34.0443 180.086 36.2641 179.191 38.4839 178.322C38.8318 178.181 39.1714 177.957 39.453 177.7C39.6187 177.551 39.6601 177.278 39.7595 177.054C39.5359 176.963 39.3122 176.789 39.0886 176.789C38.6827 176.789 38.2686 176.856 37.871 176.963C35.4359 177.609 33.009 178.289 30.5821 178.943C27.973 179.647 25.3639 180.351 22.6306 180.268C22.0922 180.252 21.5455 180.21 21.032 180.061C18.9364 179.481 18.1992 177.237 19.5576 175.547C19.9883 175.017 20.5019 174.47 21.0982 174.18C23.1027 173.203 25.1071 172.209 27.2027 171.447C30.9631 170.072 34.7898 168.871 38.5751 167.546C39.246 167.314 39.8589 166.891 40.447 166.494C40.9522 166.154 41.3664 165.682 41.1676 165.003C40.9688 164.299 40.3145 164.166 39.7347 164.216C38.3597 164.34 36.9682 164.464 35.6264 164.771C32.8019 165.425 30.0106 166.229 27.1861 166.9C25.9437 167.19 24.6599 167.388 23.3843 167.471C21.8851 167.571 21.4047 166.734 22.1667 165.425C23.376 163.346 25.0243 161.615 27.0205 160.323C29.6876 158.592 32.4954 157.068 35.2371 155.444C37.0841 154.351 38.5833 152.893 39.7678 151.113C39.8672 150.963 39.9831 150.798 39.9997 150.632C40.0246 150.367 40.0577 150.044 39.9252 149.854C39.8423 149.738 39.4365 149.746 39.2294 149.829C38.2437 150.201 37.2995 150.682 36.289 150.997C34.3591 151.593 32.396 152.106 30.4413 152.645C30.2922 152.686 30.1348 152.678 29.9775 152.678C28.1884 152.678 27.3766 151.701 28.0475 150.052C28.5859 148.735 29.2486 147.394 30.168 146.325C32.7936 143.269 35.4856 140.254 38.3349 137.404C41.0185 134.712 43.9175 132.244 46.7502 129.701C47.2224 129.279 47.7773 128.914 48.3323 128.608C48.8624 128.318 49.4422 127.978 50.0303 127.929C51.3472 127.813 52.7636 127.581 53.9895 127.929C55.5632 128.376 57.1535 129.122 58.4539 130.124C62.0735 132.915 65.5689 135.864 69.056 138.821C70.9362 140.411 72.7336 142.109 74.4895 143.84C75.2102 144.552 75.8148 145.414 76.3283 146.3C77.6784 148.619 76.5685 150.442 73.8766 150.5C71.2509 150.549 68.9649 149.547 66.7533 148.296C65.8671 147.799 65.0222 147.228 64.1525 146.689C64.078 146.723 64.0034 146.756 63.9372 146.797C64.0946 147.559 64.1691 148.346 64.4176 149.075C65.2542 151.518 67.0515 153.2 69.0891 154.658C71.9715 156.72 75.2102 158.12 78.3659 159.669C79.8154 160.381 81.2401 161.168 82.557 162.079C83.6504 162.833 83.6173 163.653 82.673 164.589C81.2235 166.022 79.335 166.37 77.43 166.502C73.9926 166.734 70.754 165.873 67.6065 164.564C66.7865 164.224 65.9748 163.876 65.1548 163.529C65.0968 163.62 65.0305 163.711 64.9725 163.802C65.5523 164.299 66.1073 164.837 66.7285 165.276C71.3089 168.515 76.3449 170.9 81.5217 173.012C82.8055 173.534 84.1142 174.023 85.2987 174.727C87.0795 175.787 87.4439 177.46 86.5245 179.324C86.1104 180.169 85.4478 180.583 84.5449 180.715C82.5819 181.014 80.6934 180.575 78.8463 180.045C75.5663 179.092 72.3194 178.032 69.0477 177.03C68.4845 176.856 67.8964 176.765 67.3166 176.682C67.1261 176.657 66.9024 176.798 66.6954 176.864C66.803 177.079 66.861 177.377 67.035 177.485C68.4348 178.338 69.8346 179.208 71.2924 179.97C75.2598 182.032 79.277 183.995 83.228 186.099C84.7354 186.903 86.1352 187.938 87.5185 188.957C88.1148 189.396 88.7278 189.943 88.5124 190.887C88.2722 191.964 87.593 192.734 86.5577 192.808C85.1662 192.916 83.7166 192.916 82.3665 192.626C78.573 191.806 74.8291 190.796 71.0522 189.909C70.58 189.793 70.0416 189.943 69.5364 189.967C69.6938 190.456 69.7186 191.086 70.0416 191.417C71.3752 192.767 72.6756 194.192 74.2079 195.277C77.0572 197.289 80.0888 199.054 83.0043 200.975C84.3958 201.895 85.7294 202.905 87.0629 203.907C87.4439 204.197 87.7587 204.595 88.0403 204.984C88.6449 205.813 88.5373 206.26 87.593 206.608C83.6173 208.09 79.5918 208.521 75.4421 207.262C72.7667 206.45 70.0582 205.68 67.3249 205.117C64.2271 204.479 61.3529 203.245 58.4374 202.11C58.0398 201.953 54.7184 200.072 50.1876 200.636C44.7706 201.307 37.8793 204.496 35.8086 205.026L35.7672 205.05Z" fill="#003366"/>
<path d="M47.5454 210.31C47.5454 210.31 54.5196 211.511 55.381 210.31C56.2424 209.109 51.4632 175.853 51.4632 175.853L47.5454 210.31Z" fill="#B2831B"/>
<path d="M376.151 181.801C375.174 182.049 374.271 182.596 373.343 183.018C371.654 183.788 369.865 184.136 368.026 184.285C367.33 184.343 366.742 184.111 366.394 183.449C366.054 182.786 366.162 182.148 366.626 181.635C367.156 181.047 367.744 180.508 368.357 180.003C369.45 179.109 370.552 178.231 371.695 177.419C372.258 177.021 372.929 176.756 373.575 176.466C374.992 175.837 376.433 175.24 377.849 174.611C378.073 174.512 378.404 174.454 378.363 174.097C378.338 173.89 377.667 173.551 377.427 173.617C377.104 173.7 376.797 173.816 376.483 173.924C374.072 174.752 371.678 175.663 369.177 176.185C368.398 176.35 367.603 176.441 366.808 176.466C365.292 176.516 364.762 175.621 365.458 174.263C366.071 173.054 367.148 172.333 368.274 171.704C370.113 170.668 372.109 170.006 374.089 169.31C375.257 168.904 376.4 168.44 377.551 167.993C377.733 167.918 377.907 167.802 378.048 167.67C378.131 167.595 378.156 167.446 378.205 167.339C378.089 167.289 377.973 167.206 377.857 167.206C377.65 167.206 377.435 167.239 377.228 167.297C375.969 167.637 374.718 167.985 373.459 168.316C372.109 168.68 370.759 169.045 369.351 169.003C369.078 169.003 368.788 168.97 368.523 168.896C367.438 168.598 367.057 167.438 367.761 166.56C367.984 166.287 368.249 166.005 368.556 165.856C369.591 165.351 370.627 164.837 371.712 164.44C373.658 163.727 375.638 163.106 377.592 162.427C377.94 162.303 378.255 162.087 378.562 161.88C378.818 161.706 379.034 161.458 378.934 161.11C378.827 160.745 378.495 160.679 378.189 160.704C377.476 160.77 376.756 160.828 376.06 160.994C374.602 161.334 373.153 161.748 371.695 162.096C371.049 162.245 370.386 162.352 369.732 162.394C368.953 162.443 368.705 162.013 369.103 161.334C369.724 160.257 370.577 159.362 371.612 158.7C372.995 157.805 374.437 157.018 375.861 156.182C376.814 155.618 377.592 154.865 378.205 153.945C378.255 153.871 378.321 153.78 378.33 153.697C378.346 153.564 378.354 153.39 378.288 153.291C378.247 153.233 378.04 153.233 377.924 153.274C377.41 153.465 376.922 153.713 376.408 153.879C375.406 154.185 374.395 154.451 373.385 154.732C373.31 154.757 373.227 154.749 373.145 154.749C372.217 154.749 371.803 154.243 372.151 153.39C372.424 152.711 372.772 152.015 373.244 151.46C374.602 149.878 375.994 148.321 377.468 146.847C378.851 145.455 380.359 144.18 381.817 142.863C382.065 142.639 382.347 142.457 382.637 142.3C382.91 142.15 383.208 141.977 383.515 141.952C384.194 141.894 384.931 141.769 385.561 141.952C386.372 142.184 387.201 142.573 387.863 143.086C389.735 144.528 391.541 146.052 393.346 147.584C394.316 148.404 395.243 149.282 396.154 150.177C396.527 150.541 396.842 150.988 397.107 151.444C397.803 152.645 397.231 153.589 395.84 153.614C394.481 153.639 393.297 153.125 392.154 152.479C391.698 152.222 391.259 151.924 390.812 151.651C390.77 151.667 390.737 151.684 390.696 151.709C390.779 152.098 390.812 152.512 390.944 152.885C391.375 154.152 392.303 155.022 393.363 155.767C394.854 156.836 396.527 157.557 398.159 158.36C398.904 158.724 399.641 159.139 400.329 159.611C400.892 160 400.876 160.422 400.387 160.903C399.633 161.648 398.664 161.822 397.678 161.889C395.906 162.004 394.224 161.565 392.601 160.886C392.179 160.712 391.756 160.53 391.334 160.356C391.301 160.406 391.267 160.447 391.243 160.497C391.541 160.754 391.831 161.035 392.145 161.259C394.514 162.932 397.115 164.166 399.79 165.26C400.453 165.533 401.132 165.781 401.745 166.146C402.665 166.693 402.855 167.562 402.383 168.523C402.168 168.962 401.828 169.177 401.356 169.244C400.337 169.401 399.368 169.169 398.407 168.896C396.709 168.407 395.028 167.852 393.338 167.339C393.048 167.248 392.742 167.198 392.444 167.156C392.344 167.14 392.228 167.214 392.121 167.248C392.179 167.355 392.203 167.513 392.295 167.571C393.023 168.01 393.744 168.465 394.498 168.854C396.552 169.923 398.631 170.933 400.668 172.027C401.447 172.441 402.168 172.979 402.888 173.501C403.195 173.725 403.509 174.015 403.402 174.495C403.278 175.05 402.93 175.448 402.391 175.489C401.671 175.547 400.925 175.547 400.221 175.39C398.258 174.967 396.32 174.445 394.373 173.981C394.125 173.924 393.852 173.998 393.587 174.006C393.669 174.263 393.678 174.586 393.852 174.752C394.539 175.448 395.21 176.185 396.005 176.748C397.48 177.792 399.045 178.703 400.553 179.697C401.273 180.169 401.961 180.691 402.648 181.212C402.847 181.362 403.004 181.569 403.153 181.767C403.468 182.198 403.41 182.43 402.921 182.612C400.867 183.374 398.78 183.598 396.635 182.952C395.251 182.529 393.852 182.132 392.435 181.842C390.828 181.511 389.346 180.873 387.838 180.293C387.631 180.21 385.917 179.241 383.573 179.531C380.773 179.879 377.211 181.527 376.135 181.801H376.151Z" fill="#003366"/>
<path d="M382.239 184.517C382.239 184.517 385.842 185.138 386.289 184.517C386.737 183.896 384.26 166.709 384.26 166.709L382.231 184.517H382.239Z" fill="#B2831B"/>
<path d="M333.635 201.986C332.169 202.367 330.811 203.179 329.411 203.816C326.868 204.976 324.176 205.498 321.418 205.73C320.374 205.813 319.488 205.473 318.966 204.471C318.453 203.477 318.619 202.516 319.314 201.737C320.109 200.851 321.004 200.039 321.923 199.286C323.563 197.944 325.22 196.619 326.943 195.393C327.796 194.788 328.798 194.39 329.767 193.968C331.904 193.024 334.058 192.121 336.203 191.177C336.543 191.028 337.031 190.936 336.982 190.406C336.948 190.092 335.938 189.586 335.574 189.686C335.093 189.818 334.621 189.984 334.149 190.15C330.521 191.4 326.926 192.759 323.158 193.546C321.99 193.786 320.789 193.935 319.596 193.968C317.318 194.043 316.523 192.692 317.558 190.655C318.486 188.833 320.101 187.756 321.799 186.803C324.566 185.254 327.564 184.244 330.546 183.2C332.302 182.587 334.025 181.892 335.747 181.212C336.021 181.105 336.278 180.923 336.501 180.732C336.625 180.616 336.667 180.401 336.741 180.235C336.567 180.16 336.394 180.028 336.22 180.028C335.905 180.028 335.582 180.078 335.275 180.16C333.387 180.666 331.498 181.188 329.61 181.701C327.581 182.248 325.551 182.794 323.423 182.736C323.008 182.728 322.578 182.687 322.18 182.579C320.548 182.124 319.977 180.384 321.037 179.067C321.368 178.653 321.774 178.231 322.238 177.999C323.795 177.237 325.361 176.466 326.984 175.87C329.908 174.801 332.882 173.866 335.822 172.838C336.344 172.656 336.816 172.333 337.28 172.018C337.669 171.753 337.992 171.389 337.843 170.859C337.686 170.312 337.18 170.213 336.725 170.246C335.656 170.345 334.571 170.436 333.528 170.677C331.333 171.182 329.154 171.811 326.959 172.333C325.99 172.565 324.996 172.714 324.002 172.78C322.834 172.855 322.462 172.209 323.058 171.19C323.994 169.575 325.278 168.225 326.827 167.223C328.906 165.881 331.084 164.688 333.213 163.429C334.654 162.584 335.814 161.45 336.733 160.058C336.808 159.942 336.907 159.818 336.915 159.685C336.932 159.478 336.957 159.221 336.857 159.081C336.791 158.989 336.476 158.998 336.319 159.056C335.549 159.346 334.811 159.718 334.033 159.959C332.534 160.422 331.01 160.82 329.486 161.242C329.37 161.276 329.245 161.267 329.129 161.267C327.738 161.267 327.108 160.505 327.63 159.221C328.044 158.194 328.566 157.151 329.279 156.322C331.324 153.945 333.42 151.601 335.632 149.381C337.719 147.294 339.972 145.372 342.175 143.393C342.539 143.062 342.97 142.78 343.409 142.54C343.823 142.308 344.271 142.051 344.726 142.01C345.753 141.919 346.855 141.736 347.807 142.01C349.033 142.358 350.267 142.937 351.278 143.716C354.094 145.886 356.811 148.18 359.528 150.483C360.985 151.725 362.385 153.042 363.752 154.384C364.315 154.939 364.779 155.61 365.176 156.298C366.228 158.103 365.359 159.52 363.271 159.561C361.226 159.602 359.453 158.824 357.73 157.846C357.043 157.457 356.38 157.018 355.709 156.596C355.651 156.621 355.593 156.654 355.535 156.679C355.659 157.267 355.717 157.88 355.908 158.451C356.562 160.356 357.954 161.657 359.544 162.791C361.789 164.39 364.307 165.483 366.758 166.693C367.885 167.248 368.987 167.86 370.022 168.573C370.875 169.161 370.85 169.799 370.113 170.519C368.987 171.637 367.521 171.902 366.03 172.002C363.354 172.184 360.836 171.513 358.393 170.494C357.755 170.229 357.126 169.956 356.488 169.691C356.438 169.765 356.397 169.832 356.347 169.906C356.802 170.287 357.225 170.71 357.714 171.058C361.275 173.576 365.193 175.431 369.219 177.079C370.212 177.485 371.24 177.866 372.159 178.413C373.55 179.241 373.824 180.541 373.111 181.991C372.788 182.645 372.275 182.968 371.571 183.076C370.047 183.308 368.572 182.968 367.139 182.554C364.588 181.817 362.062 180.989 359.519 180.21C359.08 180.078 358.625 180.003 358.177 179.945C358.028 179.929 357.854 180.036 357.697 180.086C357.78 180.252 357.821 180.484 357.962 180.566C359.055 181.229 360.14 181.908 361.275 182.496C364.356 184.103 367.487 185.627 370.552 187.259C371.728 187.888 372.813 188.692 373.89 189.479C374.354 189.818 374.826 190.249 374.66 190.978C374.47 191.814 373.948 192.411 373.145 192.477C372.068 192.56 370.933 192.56 369.881 192.336C366.932 191.699 364.017 190.912 361.085 190.224C360.712 190.133 360.298 190.249 359.9 190.266C360.025 190.647 360.041 191.135 360.298 191.392C361.333 192.436 362.344 193.546 363.536 194.39C365.756 195.956 368.109 197.331 370.378 198.822C371.463 199.534 372.499 200.321 373.534 201.108C373.832 201.331 374.072 201.646 374.296 201.944C374.768 202.59 374.685 202.938 373.948 203.212C370.85 204.363 367.728 204.703 364.497 203.725C362.41 203.096 360.314 202.499 358.186 202.06C355.775 201.563 353.539 200.603 351.278 199.725C350.963 199.6 348.387 198.143 344.859 198.582C340.643 199.103 335.292 201.58 333.677 202.002L333.635 201.986Z" fill="#00447C"/>
<path d="M342.788 206.069C342.788 206.069 348.213 206.997 348.884 206.069C349.555 205.142 345.836 179.274 345.836 179.274L342.788 206.069Z" fill="#B2831B"/>
<path d="M112.599 98.1436L110.785 95.2694L111.141 81.8098L115.059 81.7353L122.77 94.7973L125.106 94.7725L126.986 98.0028L124.667 98.0276L127.019 102.012L123.118 102.045L120.716 98.0691L112.582 98.1519L112.599 98.1436ZM114.148 94.8967L118.786 94.8387L116.732 91.4345C116.533 91.1115 116.31 90.7222 116.036 90.2666C115.771 89.8111 115.506 89.3555 115.258 88.9165C115.009 88.4692 114.777 88.0634 114.579 87.6989C114.371 87.3262 114.247 87.086 114.189 86.97H114.082C114.148 87.3676 114.198 87.7486 114.231 88.1213C114.264 88.4941 114.272 88.8751 114.272 89.2561L114.148 94.905V94.8967Z" fill="#313132"/>
<path d="M138.88 91.9812C140.04 94.1596 140.794 96.0066 141.158 97.5307C141.514 99.0382 141.407 100.181 140.843 100.985C140.28 101.78 139.187 102.186 137.555 102.194C135.253 102.21 133.074 101.366 131.003 99.6345C128.916 97.8868 126.937 95.4103 125.065 92.1634C123.797 89.9684 122.911 88.0551 122.431 86.4316C121.942 84.7916 121.959 83.5161 122.489 82.6132C123.019 81.7104 124.162 81.23 125.893 81.1969C128.336 81.1472 130.68 82.108 132.9 84.0462C135.095 85.9678 137.091 88.6266 138.88 91.9812ZM129.189 92.1054C130.49 94.408 131.641 96.106 132.66 97.2408C133.671 98.359 134.689 98.9139 135.716 98.9056C136.743 98.8973 137.133 98.3341 136.917 97.2076C136.702 96.0729 135.965 94.3583 134.698 92.0309C133.422 89.6868 132.238 87.8977 131.153 86.6884C130.067 85.4708 128.991 84.8662 127.93 84.8827C126.87 84.8993 126.464 85.5288 126.763 86.763C127.061 87.9971 127.864 89.7696 129.181 92.1054H129.189Z" fill="#313132"/>
<path d="M143.486 97.8371L141.945 94.9133L143.883 81.1886L147.942 81.114L154.394 94.4329L156.813 94.408L158.378 97.6963L155.985 97.7212L157.948 101.78L153.914 101.813L151.901 97.7709L143.486 97.8537V97.8371ZM145.465 94.5323L150.269 94.4743L148.538 91.0038C148.373 90.6725 148.182 90.2749 147.958 89.811C147.735 89.3389 147.519 88.8834 147.312 88.4278C147.105 87.9723 146.923 87.5581 146.749 87.1854C146.583 86.8127 146.476 86.5559 146.434 86.4399H146.318C146.343 86.8458 146.352 87.2351 146.343 87.6078C146.327 87.9888 146.302 88.3698 146.252 88.7674L145.465 94.524V94.5323Z" fill="#313132"/>
</g>
<defs>
<clipPath id="clip0_231_14657">
<rect width="402.837" height="320" fill="white" transform="translate(0.581543)"/>
</clipPath>
</defs>
</svg>