<?xml version="1.0" encoding="utf-8"?>
<!-- Generator: Adobe Illustrator 26.2.1, SVG Export Plug-In . SVG Version: 6.00 Build 0)  -->
<svg version="1.1" id="BC_ID" xmlns="http://www.w3.org/2000/svg" xmlns:xlink="http://www.w3.org/1999/xlink" x="0px" y="0px"
	 viewBox="0 0 847.65 327.01" style="enable-background:new 0 0 847.65 327.01;" xml:space="preserve">
<style type="text/css">
	.st0{display:none;fill:#FFFFFF;}
	.st1{fill:#F2A900;}
	.st2{fill:#002D72;}
	.st3{fill:none;}
</style>
<g>
	<path class="st0" d="M109.59,226.32c44.7,0,106.54,25.17,151.41,25.17c32.02,0,63.26-8.54,81.04-21.13
		c1.24-7.39,1.9-14.97,1.9-22.72c0-75.13-60.91-136.04-136.04-136.04c-75.13,0-136.04,60.91-136.04,136.04
		c0,7.65,0.64,15.15,1.86,22.46C78.63,229.2,95.3,226.32,109.59,226.32z"/>
	<g>
		<g>
			<rect x="415.4" y="252.98" class="st1" width="314.66" height="3.82"/>
			<path class="st2" d="M423.47,116.64c0-6.39-0.45-8.08-4.76-8.43l-3-0.21c-0.49-0.39-0.35-2.12,0.1-2.16
				c5.17-0.46,11.69-0.69,20.6-0.69c6.04,0,11.79,0.43,16.1,2.42c4.12,1.81,7.28,5.26,7.28,10.79c0,6.22-4.03,9.41-9.77,11.83
				c0,0.86,0.77,1.12,1.82,1.29c5.17,0.86,12.84,5.18,12.84,14.42c0,10.01-8.24,16.75-25.49,16.75c-2.78,0-7.47-0.26-11.5-0.26
				c-4.22,0-7.47,0.17-11.02,0.26c-0.57-0.26-0.77-1.64-0.19-2.16l1.73-0.26c5.08-0.78,5.27-1.73,5.27-10.79V116.64z M431.32,128.12
				c0,2.42,0.1,2.59,4.98,2.42c9.77-0.35,15.04-2.94,15.04-11.05c0-8.46-7-11.65-14.28-11.65c-2.11,0-3.55,0.17-4.41,0.52
				c-0.96,0.26-1.34,0.69-1.34,2.24V128.12z M431.32,148.14c0,3.11,0.19,7.51,2.01,9.41c1.82,1.98,4.7,2.42,7.57,2.42
				c8.53,0,15.04-3.45,15.04-12.08c0-6.82-3.83-14.76-19.07-14.76c-5.17,0-5.56,0.52-5.56,2.24V148.14z"/>
			<path class="st2" d="M531.26,125.14c0-7.82-0.16-9.07-4.99-9.44l-2.05-0.15c-0.49-0.29-0.33-1.62,0.16-1.84
				c4.09,0.15,6.88,0.22,10.31,0.22c3.28,0,6.06-0.07,10.15-0.22c0.49,0.22,0.65,1.55,0.16,1.84l-2.04,0.15
				c-4.83,0.37-4.99,1.62-4.99,9.44v26.25c0,7.82,0.16,8.85,4.99,9.36l2.04,0.22c0.49,0.29,0.33,1.62-0.16,1.84
				c-4.09-0.15-6.87-0.22-10.15-0.22c-3.44,0-6.22,0.07-10.31,0.22c-0.49-0.22-0.66-1.4-0.16-1.84l2.05-0.22
				c4.83-0.52,4.99-1.55,4.99-9.36V125.14z"/>
			<path class="st2" d="M576.66,151.53c0,7.74,0.15,8.85,4.6,9.22l2.45,0.22c0.46,0.29,0.31,1.62-0.15,1.84
				c-4.37-0.15-6.98-0.22-10.05-0.22c-3.07,0-5.75,0.07-10.66,0.22c-0.46-0.22-0.62-1.47,0-1.84l2.76-0.22
				c4.37-0.37,4.75-1.48,4.75-9.22v-32.96c0-2.28,0-2.36-2.3-2.36h-4.22c-3.3,0-7.51,0.15-9.43,1.84c-1.84,1.62-2.61,3.24-3.45,5.09
				c-0.62,0.44-1.69,0.07-1.99-0.52c1.22-3.32,2.38-8.04,2.91-10.98c0.23-0.15,1.23-0.22,1.46,0c0.46,2.36,2.99,2.29,6.52,2.29
				h31.05c4.14,0,4.83-0.15,5.98-2.06c0.38-0.15,1.23-0.07,1.38,0.22c-0.84,3.02-1.38,9-1.15,11.21c-0.31,0.59-1.61,0.59-1.99,0.15
				c-0.23-1.84-0.77-4.57-1.92-5.38c-1.76-1.25-4.68-1.84-8.89-1.84h-5.44c-2.3,0-2.22,0.07-2.22,2.51V151.53z"/>
			<path class="st2" d="M609.53,125.14c0-7.82-0.16-9.07-4.99-9.44l-2.05-0.15c-0.49-0.29-0.33-1.62,0.16-1.84
				c4.09,0.15,6.88,0.22,10.31,0.22c3.27,0,6.05-0.07,10.15-0.22c0.49,0.22,0.66,1.55,0.17,1.84l-2.05,0.15
				c-4.83,0.37-4.99,1.62-4.99,9.44v26.25c0,7.82,0.16,8.85,4.99,9.36l2.05,0.22c0.49,0.29,0.33,1.62-0.17,1.84
				c-4.09-0.15-6.87-0.22-10.15-0.22c-3.44,0-6.22,0.07-10.31,0.22c-0.49-0.22-0.65-1.4-0.16-1.84l2.05-0.22
				c4.83-0.52,4.99-1.55,4.99-9.36V125.14z"/>
			<path class="st2" d="M646.2,163.57c-7.31,0-11.92-1.92-13.57-2.73c-1.05-1.62-2.18-6.86-2.35-10.32
				c0.44-0.52,1.74-0.66,2.09-0.22c1.31,3.76,4.87,10.98,14.96,10.98c7.31,0,10.88-4.05,10.88-8.48c0-3.24-0.78-6.86-7.13-10.32
				l-8.26-4.57c-4.35-2.43-9.4-6.64-9.4-12.68c0-7,6.44-12.68,17.75-12.68c2.7,0,5.83,0.44,8.09,0.96c1.13,0.29,2.35,0.44,3.04,0.44
				c0.78,1.77,1.57,5.9,1.57,9c-0.35,0.44-1.74,0.66-2.18,0.22c-1.13-3.54-3.48-8.33-11.83-8.33c-8.53,0-10.35,4.79-10.35,8.18
				c0,4.28,4.18,7.38,7.39,9.07l6.96,3.69c5.48,2.88,10.88,7.15,10.88,14.16C664.73,158.04,657.51,163.57,646.2,163.57z"/>
			<path class="st2" d="M689.99,138.78c-3.81,0-3.96,0.15-3.96,2.36v10.4c0,7.74,0.4,8.77,4.84,9.22l2.3,0.22
				c0.48,0.29,0.32,1.62-0.16,1.84c-4.28-0.15-6.98-0.22-10.08-0.22c-3.41,0-6.11,0.15-9.2,0.22c-0.47-0.22-0.63-1.4-0.16-1.84
				l1.35-0.22c4.45-0.74,4.6-1.48,4.6-9.22v-26.54c0-7.74-0.55-8.99-4.68-9.29l-2.06-0.15c-0.48-0.29-0.32-1.62,0.16-1.84
				c3.89,0.07,6.58,0.22,10,0.22c3.1,0,5.79-0.07,9.2-0.22c0.48,0.22,0.63,1.55,0.16,1.84l-1.51,0.15c-4.6,0.44-4.76,1.55-4.76,9.29
				v8.48c0,2.28,0.16,2.36,3.96,2.36h22.69c3.81,0,3.97-0.07,3.97-2.36v-8.48c0-7.74-0.16-8.85-4.84-9.29l-1.51-0.15
				c-0.48-0.29-0.32-1.62,0.16-1.84c3.65,0.15,6.35,0.22,9.6,0.22c3.09,0,5.79-0.07,9.36-0.22c0.48,0.22,0.63,1.55,0.16,1.84
				l-1.66,0.15c-4.6,0.44-4.76,1.55-4.76,9.29v26.54c0,7.74,0.16,8.7,4.76,9.22l1.9,0.22c0.47,0.29,0.32,1.62-0.16,1.84
				c-3.81-0.15-6.51-0.22-9.6-0.22c-3.25,0-6.11,0.07-9.6,0.22c-0.48-0.22-0.63-1.4-0.16-1.84l1.51-0.22
				c4.84-0.74,4.84-1.48,4.84-9.22v-10.4c0-2.21-0.16-2.36-3.97-2.36H689.99z"/>
			<path class="st2" d="M378.06,179.01c6.52-5.07,14.83-7.57,24.12-7.57c4.82,0,11.61,0.98,15.81,2.14c1.07,0.27,1.7,0.45,2.5,0.36
				c0.09,2.05,0.54,7.65,1.25,13.09c-0.45,0.62-1.79,0.71-2.41,0.18c-1.34-6.05-5.36-13-18.31-13c-13.67,0-25.28,8.64-25.28,27.06
				c0,18.69,11.88,29.02,26.53,29.02c11.52,0,16.62-7.48,18.67-12.73c0.63-0.44,1.97-0.27,2.32,0.36c-0.62,4.63-2.95,10.5-4.29,12.2
				c-1.07,0.18-2.14,0.53-3.13,0.89c-1.97,0.71-8.4,2.05-14.11,2.05c-8.04,0-15.72-1.6-22.24-5.96
				c-7.15-4.9-12.69-12.99-12.69-24.48C366.8,192.72,371.27,184.26,378.06,179.01z"/>
			<path class="st2" d="M426.92,207.81c0-14.75,11.61-26.03,27.56-26.03c17.88,0,26.86,12.31,26.86,25.29
				c0,14.89-11.92,25.73-26.86,25.73C437.29,232.8,426.92,221.08,426.92,207.81z M473.6,209.35c0-12.17-5.65-25.29-20.44-25.29
				c-8.05,0-18.5,5.24-18.5,21.38c0,10.91,5.57,25.07,20.82,25.07C464.77,230.52,473.6,223.88,473.6,209.35z"/>
			<path class="st2" d="M568.68,201.47c0-4.57-0.16-13.05-1.49-15.26c-0.55-0.89-1.95-1.4-3.91-1.55l-1.95-0.15
				c-0.47-0.52-0.31-1.47,0.15-1.77c2.97,0.15,5.86,0.22,8.91,0.22c3.28,0,5.39-0.08,8.21-0.22c0.62,0.37,0.55,1.33,0.16,1.77
				l-1.88,0.15c-1.95,0.15-3.44,0.81-3.91,1.77c-1.09,2.43-1.09,10.91-1.09,15.04v8.33c0,6.42-1.1,13.2-5.47,17.62
				c-3.36,3.47-9.14,5.38-14.93,5.38c-5.39,0-10.79-0.96-14.62-4.05c-4.14-3.24-6.1-8.63-6.1-17.4v-17.4c0-7.67-0.16-8.92-4.69-9.29
				l-1.96-0.15c-0.47-0.29-0.31-1.55,0.15-1.77c3.91,0.15,6.57,0.22,9.69,0.22c3.2,0,5.78-0.08,9.61-0.22
				c0.47,0.22,0.63,1.47,0.16,1.77l-1.88,0.15c-4.53,0.37-4.69,1.62-4.69,9.29v15.93c0,11.87,3.91,19.69,15.87,19.69
				c11.33,0,15.63-8.41,15.63-19.61V201.47z"/>
			<path class="st2" d="M659.52,192.26c0-5.51-0.35-6.93-4.23-7.22l-2.77-0.27c-0.31-0.28-0.48-1.78,0.09-1.82
				c4.67-0.35,10.54-0.59,18.57-0.59c5.44,0,10.62,0.37,14.51,2.08c3.71,1.57,6.56,4.54,6.56,9.31c0,5.36-3.63,8.12-8.81,10.2
				c0,0.75,0.69,0.97,1.64,1.12c4.67,0.74,11.58,4.47,11.58,12.44c0,8.64-7.43,14.45-22.98,14.45c-2.5,0-6.74-0.22-10.37-0.22
				c-3.8,0-6.74,0.15-9.93,0.22c-0.52-0.22-0.69-1.41-0.17-1.86l1.55-0.22c4.58-0.67,4.75-1.49,4.75-9.31V192.26z M666.6,202.16
				c0,2.09,0.09,2.24,4.49,2.09c8.81-0.3,13.56-2.53,13.56-9.53c0-7.3-6.3-10.05-12.87-10.05c-1.9,0-3.2,0.15-3.97,0.45
				c-0.87,0.22-1.21,0.59-1.21,1.94V202.16z M666.6,219.44c0,2.68,0.17,6.48,1.81,8.12c1.64,1.71,4.23,2.08,6.82,2.08
				c7.69,0,13.56-2.98,13.56-10.43c0-5.88-3.45-12.73-17.19-12.73c-4.67,0-5.01,0.44-5.01,1.94V219.44z"/>
			<g>
				<g>
					<path class="st2" d="M518.75,160.97l-2.05-0.18c-0.41-0.04-0.78-0.1-1.13-0.15c-2.99-0.53-4.19-3.2-5.6-5.67l-7.08-12.32
						c-1.22-2.05-2.53-4.82-5.33-5.21c7.25-0.87,13.81-5.06,13.81-12.24c0-8.3-8.21-12.01-16.52-12.01c-4.98,0-9.52,0.13-14.59,0.13
						c-2.79,0-6.12-0.13-8.92-0.13c-1.55,0-1.57,0.32-1.57,1.18c0,1.28,0.54,0.92,2.19,1.02c5.9,0.33,5.68,1.43,5.68,6.49v32.31
						c0,4.62,0.4,6-4.46,6.44c0,0-0.74,0.08-1.17,0.12l-2.06,0.21c-0.49,0.44-0.33,1.62,0.16,1.84c1.09-0.04,3.03-0.12,3.03-0.12
						c2.69-0.08,5.38-0.28,8.06-0.28c2.7,0,5.29,0.21,7.95,0.29v0c0.94,0.03,1.94,0.06,3.03,0.1c0.49-0.22,0.66-1.4,0.16-1.84
						l-2.07-0.2c-0.42-0.04-1.15-0.11-1.15-0.11c-4.9-0.33-4.6-1.71-4.6-6.46v-12.17c0-0.71-0.09-2.61,0.44-3.16
						c0.44-0.48,1.22-0.4,1.92-0.4c6.64,0,6.55,0.63,9.7,6.16l8.56,15.4c0.7,1.19,1.22,2.69,2.97,2.69h7.44
						c0.94,0.03,1.92,0.06,3.01,0.1C519.07,162.59,519.24,161.41,518.75,160.97z M488.92,136.74c-1.49,0-4.46,0.55-4.46-1.42v-14.14
						c0-5.53,0.18-6.32,6.82-6.32c7.78,0,12.58,3.95,12.58,11.22c0,3.16-1.14,6.08-4.02,8.06
						C496.52,136.43,492.94,136.74,488.92,136.74z"/>
				</g>
			</g>
			<g>
				<path class="st2" d="M490.52,194.2c0-7.74-0.16-8.92-5.27-9.29l-2.03-0.15c-0.49-0.3-0.32-1.62,0.16-1.84
					c4.54,0.15,7.3,0.22,10.54,0.22c3.16,0,5.92-0.07,9.98-0.22c0.49,0.22,0.65,1.55,0.16,1.84l-1.95,0.15
					c-4.78,0.37-4.95,1.55-4.95,9.29v25.66c0,4.64,0.24,6.56,1.7,7.96c0.89,0.81,2.43,1.7,8.84,1.7c6.89,0,8.6-0.3,9.9-0.96
					c1.62-0.89,3.73-3.54,5.35-7.3c0.49-0.37,2.03-0.07,2.03,0.44c0,0.81-2.27,8.33-3.41,10.32c-4.13-0.15-11.84-0.22-20.2-0.22
					h-7.46c-3.41,0-6,0.07-10.54,0.22c-0.49-0.22-0.65-1.4-0.16-1.84l2.43-0.22c4.7-0.44,4.87-1.48,4.87-9.22V194.2z"/>
				<path class="st2" d="M707.79,194.34c0-7.81-0.16-9.07-4.86-9.44l-1.99-0.15c-0.48-0.3-0.32-1.62,0.16-1.84
					c3.98,0.15,6.69,0.22,10.03,0.22c3.19,0,5.89-0.07,9.88-0.22c0.48,0.22,0.64,1.55,0.16,1.84l-1.99,0.15
					c-4.7,0.37-4.86,1.62-4.86,9.44v26.25c0,7.82,0.16,8.85,4.86,9.36l1.99,0.22c0.48,0.29,0.32,1.62-0.16,1.84
					c-3.98-0.15-6.69-0.22-9.88-0.22c-3.35,0-6.05,0.07-10.03,0.22c-0.48-0.22-0.64-1.4-0.16-1.84l1.99-0.22
					c4.7-0.52,4.86-1.55,4.86-9.36V194.34z"/>
				<path class="st2" d="M644.16,229.94c-0.41-0.04-1.17-0.1-1.17-0.1c-0.84-0.08-1.59-0.2-2.19-0.86c-1.03-1.1-0.95-4.23-0.95-5.48
					v-32.31c0-1.41-0.34-4.46,0.69-5.56c0.52-0.58,1.59-0.67,2.55-0.73v0c0.58-0.04,0.6-0.05,1.11-0.07l2.05-0.15
					c0.49-0.3,0.33-1.62-0.16-1.84c-1.09,0.04-2.09,0.02-3.03,0.05v0h-8.7c-0.95,0-1.81,0-2.32,1.02l-17.73,36.92l-15.66-35.67
					c-0.52-1.25-0.6-2.27-2.24-2.27h-9.05c-0.94-0.03-1.98-0.02-3.08-0.06c-0.49,0.22-0.66,1.55-0.16,1.84l2.05,0.15
					c0.42,0.03,1.19,0.09,1.19,0.09c3.4,0.22,3.61,0.98,3.3,4.55l-2.67,34.65c-0.23,3.48-0.42,5.32-4.07,5.66
					c0,0-0.77,0.1-1.19,0.14l-2.04,0.22c-0.49,0.44-0.33,1.62,0.16,1.84c1.08-0.04,3-0.1,3-0.1c1.85-0.09,3.73-0.25,5.61-0.25
					c2.03,0,4.06,0.19,6.1,0.27v0c0.94,0.03,1.94,0.06,3.03,0.1c0.49-0.22,0.66-1.4,0.16-1.84l-2.04-0.22
					c-0.54-0.04-1.14-0.1-1.14-0.1c-5.26-0.36-5.14-4.07-4.81-8.62l2.5-32.23h0.6l16.95,39.66c0.17,0.55,0.43,1.49,1.29,1.49
					c0.78,0,1.03-0.86,1.29-1.41l19.1-40.68h0.6v35.44c0,1.41,0.17,4.3-1.29,5.4c-0.76,0.57-3.25,0.91-3.25,0.91
					c-0.34,0.05-0.7,0.1-1.11,0.15l-2.04,0.22c-0.49,0.44-0.33,1.62,0.16,1.84c1.08-0.04,2.99-0.1,2.99-0.1
					c2.77-0.08,5.59-0.28,8.41-0.28c2.03,0,6,0.19,6,0.19c0.95,0.03,2.02,0.13,3.12,0.17c0.49-0.22,0.66-1.4,0.16-1.84
					L644.16,229.94z"/>
				<g>
					<g>
						<path class="st2" d="M777.13,230.14l-0.28-0.22c-0.41-0.04-0.77-0.09-1.11-0.15c-3.19-0.71-4.43-4.55-5.61-7.29l-16.41-38.83
							c-0.16-0.47-0.49-1.47-1.14-1.47c-0.89,0-1.14,1.08-1.38,1.7l-15.68,38.76c-0.57,1.47-2.03,5.03-3.09,6.11
							c-0.81,0.83-1.86,0.99-2.99,1.1c0,0-0.88,0.08-1.31,0.13l-1.93,0.2c-0.49,0.44-0.33,1.62,0.16,1.84
							c1.09-0.04,3.03-0.11,3.03-0.11c2.14-0.03,4.29-0.3,6.44-0.3c1.81,0,3.61,0.19,5.41,0.27c0,0,1.94,0.07,3.03,0.11
							c0.49-0.22,0.65-1.4,0.16-1.84l-2.05-0.22c-0.41-0.04-1.11-0.11-1.11-0.11c-1.89-0.21-4.24-0.55-4.24-2.62
							c0-1.39,0.65-3.02,1.14-4.25l2.44-5.8c1.22-2.78,0.73-3.1,3.98-3.1h11.05c3.9,0,3.33,0,5.04,3.95l2.6,5.88
							c0.41,1.01,1.14,2.71,1.14,3.79c0,1.94-2.12,2.07-4.11,2.24c0,0-0.66,0.06-1.23,0.1l-1.97,0.14
							c-0.49,0.44-0.33,1.62,0.17,1.84c1.09-0.04,3.03-0.12,3.03-0.12c2.31-0.08,4.64-0.26,6.87-0.26c2.85,0,5.69,0.19,8.54,0.27v0
							c0.93,0.03,0.14,0.06,1.22,0.1C777.46,231.76,777.62,230.58,777.13,230.14z M755.64,211.89h-9.57c-0.33,0-3,0.31-3-0.47
							c0-0.24,0.17-0.7,0.25-0.94l5.75-14.23c0.17-0.39,0.75-2.35,1.41-2.35c0.5,0,1.17,2.03,1.33,2.35l5.66,13.29
							c0,0.16,0.58,1.41,0.58,1.72C758.05,212.12,756.14,211.89,755.64,211.89z"/>
					</g>
				</g>
			</g>
			<rect x="0" y="0" class="st3" width="847.65" height="327.01"/>
		</g>
		<g>
			<polygon class="st1" points="295.89,176.17 301.27,178.4 313.19,170.08 			"/>
			<path class="st1" d="M95.45,166.88l-14.14-4.97l0.71-1.73l15.92,5.31l0.07-0.04l2.1-1.19l0.84-0.53l-17.36-7.39l0.73-1.82
				l38.75,15.67l1.28-0.53l-38.44-18.73l0.86-1.76l40.73,18.96l0.56-0.29l-39.49-22.4l0.81-1.68l57.03,31.03
				c0.47-0.86,1.44-2.44,1.95-3.28c-21.68-20.39-42.61-35.69-42.61-35.69s21.52,14.41,48.07,27.81c0.88-1.09,1.6-1.97,2.53-3.01
				l-48.65-42.83l1.31-1.34l39.27,33.47l-36.38-36.43l1.36-1.41l40.84,39.47l-38.02-42.2l1.45-1.31l35.14,37.63l-32.07-40.41
				l1.38-1.26l41.11,50.03c1.06-0.92,1.95-1.61,3.06-2.46c-12.44-26.91-26.02-48.8-26.02-48.8s14.46,21.28,33.96,43.56
				c1.19-0.67,2.4-1.31,3.63-1.92l-0.21-0.13l-28.81-57.5l1.71-0.75l23.87,45.74l-20.08-47.41l1.79-0.8l23.08,51.9l-19.45-53.37
				l1.84-0.67l18.49,48.05l-14.6-49.49l1.75-0.65l19.22,61.38l-0.04,0.16l0.05-0.02c1.28-0.43,2.58-0.81,3.89-1.16
				c-1.46-29.48-5.82-54.7-5.82-54.7s5.4,25,15.08,52.87c1.35-0.17,2.71-0.31,4.07-0.4l-0.04-0.06h0.17l-0.1-0.14l-5.17-64.11
				l1.87-0.06l5,51.35l-0.86-51.48l1.96-0.07l1.96,56.77l1.96-56.77l1.96,0.07l-0.86,51.48l5-51.35l1.87,0.06l-5.17,64.11l-0.1,0.14
				h0.03l-0.01,0.02h0.08c1.34,0.08,2.66,0.22,3.98,0.38c9.67-27.84,15.06-52.8,15.06-52.8s-4.35,25.14-5.82,54.57
				c1.32,0.35,2.63,0.73,3.91,1.15l19.15-61.16l1.76,0.65l-14.6,49.48l18.49-48.05l1.84,0.67l-19.45,53.37l23.08-51.9l1.79,0.8
				l-20.08,47.41l23.87-45.74l1.71,0.75l-28.71,57.3l0.05,0.02c1.18,0.58,2.34,1.19,3.49,1.83c19.42-22.21,33.79-43.37,33.79-43.37
				s-13.49,21.74-25.89,48.52c1.11,0.84,2.19,1.7,3.24,2.6l40.63-49.49l1.39,1.26l-32.08,40.41l35.14-37.63l1.45,1.31l-38.02,42.2
				l40.84-39.47l1.36,1.41l-36.38,36.43l39.27-33.47l1.31,1.34l-48.06,42.35l0.03,0.03c0.84,0.94,1.65,1.9,2.44,2.88
				c26.39-13.34,47.71-27.62,47.71-27.62s-20.72,15.16-42.29,35.4c0.59,0.99,1.55,2.67,2.09,3.69l56.22-30.61l0.81,1.68
				l-44.88,25.45l46.68-21.72l0.86,1.76l-43.48,21.19l0.83,0.29l44.24-17.89l0.74,1.82l-41.12,17.49l0.77,0.32l27.4-9.13l4.13-2.88
				l1.37,1.05l9.02-3.01l0.71,1.73l-7.8,2.75l11.27,8.6l3.61,2.01c-14.49-60.58-68.98-105.62-134-105.62
				c-66.16,0-121.42,46.63-134.73,108.82c0.17-0.08,0.34-0.16,0.51-0.24l1.65-0.75l1.01-0.47L95.45,166.88z"/>
		</g>
		<path class="st2" d="M72.5,233.02c0,0,20.32-4.06,37.29-4.06c44.7,0,106.54,25.17,151.41,25.17c32.91,0,65.02-9.03,82.51-22.19
			c1.37-7.79,2.08-15.8,2.08-23.98c0-11.08-1.32-21.85-3.79-32.17l-18.7-10.43l-21.95,15.39L286.59,175
			c-5,2.53-35.83,23.15-35.83,23.15l-11.84-8.57l-12.7-2.51l-16.93-12.33l-19.42,13.33c0,0-21.67,12.58-22.41,12.58
			c-0.75,0-26.14-20.13-26.14-20.13l-11.7-12.33c-1.99,1.26-9.95,4.91-9.95,4.91l-0.41,0.11l-7.7-2.38l-9.35-4.96l-28.41,12.88
			c-0.17,0.08-0.34,0.16-0.51,0.24c-2,9.34-3.06,19.03-3.06,28.96C70.22,216.52,71,224.9,72.5,233.02z"/>
	</g>
</g>
</svg>
