<svg xmlns="http://www.w3.org/2000/svg" width="22" height="22" viewBox="0 0 22 22" fill="none">
    <path d="M1.90964 2.92441C1.90964 2.2746 2.2812 1.94961 3.34187 1.94961H13.8449C14.7997 1.94961 15.2771 1.94961 15.2771 2.92441V7.31046C15.2771 7.7985 15.2771 8.7733 16.2319 8.7733C17.1868 8.7733 17.1868 7.7985 17.1868 7.31046V2.59927C17.1868 1.16561 16.1717 0 14.5334 0H2.97031C1.332 0 0 1.16561 0 2.59927V17.7075C0 19.1412 1.332 20.4484 2.97031 20.4484L8.27521 20.4381C8.9117 20.4381 9.5482 20.1944 9.5482 19.4633C9.5482 18.7323 8.9117 18.4886 8.27521 18.4886L3.62533 18.499C2.38705 18.4457 1.90964 18.0339 1.90964 17.0591V2.92441Z" fill="#201F1E"/>
    <path d="M12.2251 4.94384L4.90428 4.87399C4.28701 4.87399 3.79042 5.30856 3.79042 5.84872C3.79042 6.38888 4.28701 6.82344 4.90428 6.82344L12.2251 6.89329C12.8423 6.89329 13.3389 6.45873 13.3389 5.91857C13.3389 5.37841 12.8423 4.94384 12.2251 4.94384Z" fill="#201F1E"/>
    <path d="M4.90428 8.77329H9.38915C10.0064 8.77329 10.503 9.20785 10.503 9.74801C10.503 10.2882 10.0064 10.7227 9.38915 10.7227H4.90428C4.28701 10.7227 3.79042 10.2882 3.79042 9.74801C3.79042 9.20785 4.28701 8.77329 4.90428 8.77329Z" fill="#201F1E"/>
    <path fill-rule="evenodd" clip-rule="evenodd" d="M19.3741 18.4469C19.9982 17.5738 20.3686 16.4975 20.3686 15.3324C20.3686 12.4158 18.0539 10.0526 15.1971 10.0526C12.3404 10.0526 10.0256 12.4158 10.0256 15.3324C10.0256 18.249 12.3404 20.6122 15.1971 20.6122C16.3383 20.6122 17.3925 20.2365 18.2478 19.5968L20.6406 21.762C20.9514 22.0793 21.4561 22.0793 21.7669 21.762C22.0777 21.4447 22.0777 20.9295 21.7669 20.6122L19.3741 18.4469ZM16.5672 18.7094C16.1329 18.8931 15.6673 18.9876 15.1971 18.9876C14.727 18.9876 14.2614 18.8931 13.827 18.7094C13.3926 18.5257 12.9979 18.2564 12.6655 17.917C12.333 17.5776 12.0693 17.1747 11.8894 16.7312C11.7095 16.2877 11.6168 15.8124 11.6168 15.3324C11.6168 14.8524 11.7095 14.3771 11.8894 13.9336C12.0693 13.4901 12.333 13.0872 12.6655 12.7478C12.9979 12.4083 13.3926 12.1391 13.827 11.9554C14.2614 11.7717 14.727 11.6772 15.1971 11.6772C15.6673 11.6772 16.1329 11.7717 16.5672 11.9554C17.0016 12.1391 17.3963 12.4083 17.7288 12.7478C18.0612 13.0872 18.325 13.4901 18.5049 13.9336C18.6848 14.3771 18.7774 14.8524 18.7774 15.3324C18.7774 15.8124 18.6848 16.2877 18.5049 16.7312C18.325 17.1747 18.0612 17.5776 17.7288 17.917C17.3963 18.2564 17.0016 18.5257 16.5672 18.7094Z" fill="#201F1E"/>
</svg>