<?xml version="1.0" encoding="UTF-8"?>
<svg xmlns="http://www.w3.org/2000/svg" xmlns:xlink="http://www.w3.org/1999/xlink" width="64px" height="64px" viewBox="0 0 64 64" version="1.1">
<g id="surface1">
<path style=" stroke:none;fill-rule:nonzero;fill:rgb(91.764706%,91.372549%,90.980392%);fill-opacity:1;" d="M 63.0625 29.34375 C 63.0625 24.980469 59.894531 21.359375 55.730469 20.648438 C 55.347656 20.585938 55.046875 20.285156 54.972656 19.90625 C 54.074219 15.078125 49.375 11.894531 44.535156 12.886719 C 44.175781 12.960938 43.804688 12.816406 43.59375 12.511719 C 39.507812 6.644531 30.828125 6.617188 26.71875 12.496094 C 26.511719 12.792969 26.148438 12.9375 25.792969 12.871094 C 20.933594 11.921875 16.316406 15.148438 15.429688 19.90625 C 15.359375 20.285156 15.058594 20.585938 14.675781 20.648438 C 10.511719 21.359375 7.34375 24.980469 7.34375 29.34375 C 7.34375 33.710938 10.511719 37.332031 14.675781 38.039062 C 15.058594 38.105469 15.359375 38.402344 15.429688 38.785156 C 16.316406 43.539062 20.929688 46.769531 25.792969 45.820312 C 26.148438 45.75 26.511719 45.898438 26.71875 46.195312 C 28.578125 48.851562 31.660156 50.59375 35.148438 50.59375 C 38.648438 50.59375 41.734375 48.847656 43.59375 46.179688 C 43.804688 45.875 44.175781 45.730469 44.535156 45.804688 C 49.367188 46.792969 54.074219 43.621094 54.972656 38.785156 C 55.046875 38.402344 55.347656 38.105469 55.730469 38.039062 C 59.894531 37.332031 63.0625 33.710938 63.0625 29.34375 Z M 63.0625 29.34375 "/>
<path style=" stroke:none;fill-rule:nonzero;fill:rgb(85.882353%,85.882353%,85.882353%);fill-opacity:1;" d="M 41.398438 46.632812 C 37.910156 46.632812 34.828125 44.894531 32.96875 42.238281 C 32.761719 41.941406 32.398438 41.792969 32.042969 41.863281 C 27.179688 42.808594 22.566406 39.578125 21.679688 34.828125 C 21.609375 34.445312 21.308594 34.148438 20.925781 34.082031 C 16.761719 33.375 13.59375 29.75 13.59375 25.386719 C 13.59375 23.558594 14.152344 21.859375 15.105469 20.453125 C 14.984375 20.550781 14.835938 20.621094 14.675781 20.648438 C 10.511719 21.359375 7.34375 24.980469 7.34375 29.34375 C 7.34375 33.710938 10.511719 37.332031 14.675781 38.039062 C 15.058594 38.105469 15.359375 38.402344 15.429688 38.785156 C 16.316406 43.539062 20.929688 46.769531 25.792969 45.820312 C 26.148438 45.75 26.511719 45.898438 26.71875 46.195312 C 28.578125 48.855469 31.660156 50.59375 35.148438 50.59375 C 38.53125 50.59375 41.53125 48.960938 43.40625 46.4375 C 42.757812 46.566406 42.085938 46.632812 41.398438 46.632812 Z M 41.398438 46.632812 "/>
<path style=" stroke:none;fill-rule:nonzero;fill:rgb(91.764706%,91.372549%,90.980392%);fill-opacity:1;" d="M 18.800781 51.277344 C 18.800781 53.828125 16.730469 55.898438 14.179688 55.898438 C 11.625 55.898438 9.554688 53.828125 9.554688 51.277344 C 9.554688 48.722656 11.625 46.652344 14.179688 46.652344 C 16.730469 46.652344 18.800781 48.722656 18.800781 51.277344 Z M 18.800781 51.277344 "/>
<path style=" stroke:none;fill-rule:nonzero;fill:rgb(85.882353%,85.882353%,85.882353%);fill-opacity:1;" d="M 14.179688 51.277344 C 13.324219 49.792969 13.382812 48.035156 14.179688 46.652344 C 13.394531 46.652344 12.597656 46.851562 11.867188 47.273438 C 9.65625 48.546875 8.898438 51.375 10.175781 53.585938 C 11.453125 55.796875 14.277344 56.554688 16.488281 55.277344 C 17.21875 54.859375 17.789062 54.265625 18.183594 53.585938 C 16.585938 53.585938 15.035156 52.757812 14.179688 51.277344 Z M 14.179688 51.277344 "/>
<path style=" stroke:none;fill-rule:nonzero;fill:rgb(85.882353%,85.882353%,85.882353%);fill-opacity:1;" d="M 5.558594 51.441406 C 5.558594 52.71875 4.523438 53.75 3.25 53.75 C 1.972656 53.75 0.9375 52.71875 0.9375 51.441406 C 0.9375 50.164062 1.972656 49.128906 3.25 49.128906 C 4.523438 49.128906 5.558594 50.164062 5.558594 51.441406 Z M 5.558594 51.441406 "/>
<path style=" stroke:none;fill-rule:nonzero;fill:rgb(0%,0%,0%);fill-opacity:1;" d="M 3.25 48.191406 C 1.457031 48.191406 0 49.648438 0 51.441406 C 0 53.230469 1.457031 54.6875 3.25 54.6875 C 5.039062 54.6875 6.496094 53.230469 6.496094 51.441406 C 6.496094 49.648438 5.039062 48.191406 3.25 48.191406 Z M 3.25 52.8125 C 2.492188 52.8125 1.875 52.199219 1.875 51.441406 C 1.875 50.683594 2.492188 50.066406 3.25 50.066406 C 4.007812 50.066406 4.621094 50.683594 4.621094 51.441406 C 4.621094 52.199219 4.007812 52.8125 3.25 52.8125 Z M 3.25 52.8125 "/>
<path style=" stroke:none;fill-rule:nonzero;fill:rgb(0%,0%,0%);fill-opacity:1;" d="M 55.894531 19.734375 C 55.519531 17.71875 54.535156 15.902344 53.046875 14.480469 C 52.675781 14.121094 52.082031 14.132812 51.722656 14.507812 C 51.363281 14.882812 51.378906 15.476562 51.75 15.832031 C 52.953125 16.984375 53.75 18.453125 54.050781 20.074219 C 54.195312 20.839844 54.804688 21.441406 55.574219 21.574219 C 59.371094 22.21875 62.125 25.488281 62.125 29.34375 C 62.125 33.203125 59.371094 36.46875 55.574219 37.117188 C 54.804688 37.246094 54.195312 37.847656 54.050781 38.613281 C 53.246094 42.945312 49.03125 45.765625 44.722656 44.886719 C 43.992188 44.734375 43.246094 45.035156 42.824219 45.640625 C 40.734375 48.644531 37.078125 50.167969 33.441406 49.5 C 32.933594 49.40625 32.445312 49.742188 32.351562 50.25 C 32.257812 50.761719 32.59375 51.25 33.101562 51.34375 C 33.773438 51.46875 34.464844 51.53125 35.148438 51.53125 C 38.816406 51.53125 42.253906 49.734375 44.355469 46.722656 C 49.660156 47.804688 54.894531 44.339844 55.886719 38.964844 C 60.589844 38.164062 64 34.117188 64 29.34375 C 64 24.570312 60.589844 20.523438 55.894531 19.734375 Z M 55.894531 19.734375 "/>
<path style=" stroke:none;fill-rule:nonzero;fill:rgb(0%,0%,0%);fill-opacity:1;" d="M 29.722656 47.914062 C 28.851562 47.292969 28.097656 46.53125 27.488281 45.65625 C 27.066406 45.058594 26.332031 44.757812 25.613281 44.898438 C 25.117188 44.996094 24.609375 45.046875 24.101562 45.046875 C 20.304688 45.046875 17.046875 42.339844 16.351562 38.613281 C 16.210938 37.847656 15.597656 37.246094 14.832031 37.117188 C 11.035156 36.46875 8.28125 33.203125 8.28125 29.34375 C 8.28125 25.488281 11.035156 22.21875 14.832031 21.574219 C 15.597656 21.441406 16.210938 20.839844 16.351562 20.074219 C 17.15625 15.765625 21.328125 12.953125 25.613281 13.789062 C 26.332031 13.929688 27.066406 13.632812 27.488281 13.03125 C 29.238281 10.53125 32.101562 9.035156 35.148438 9.035156 C 38.207031 9.035156 41.074219 10.535156 42.824219 13.046875 C 43.246094 13.65625 43.992188 13.953125 44.722656 13.804688 C 45.917969 13.5625 47.164062 13.597656 48.335938 13.910156 C 48.835938 14.042969 49.347656 13.746094 49.480469 13.246094 C 49.617188 12.746094 49.316406 12.230469 48.816406 12.097656 C 47.371094 11.710938 45.828125 11.664062 44.355469 11.964844 C 39.898438 5.578125 30.4375 5.554688 25.957031 11.949219 C 20.644531 10.917969 15.5 14.414062 14.515625 19.726562 C 9.816406 20.523438 6.40625 24.570312 6.40625 29.34375 C 6.40625 34.121094 9.816406 38.164062 14.507812 38.957031 C 15.496094 44.257812 20.625 47.773438 25.957031 46.742188 C 26.691406 47.789062 27.589844 48.695312 28.632812 49.441406 C 28.796875 49.558594 28.988281 49.617188 29.175781 49.617188 C 30.082031 49.617188 30.464844 48.445312 29.722656 47.914062 Z M 29.722656 47.914062 "/>
<path style=" stroke:none;fill-rule:nonzero;fill:rgb(0%,0%,0%);fill-opacity:1;" d="M 18.574219 49.5625 C 18.0625 49.652344 17.722656 50.136719 17.808594 50.648438 C 18.199219 52.917969 16.441406 54.960938 14.179688 54.960938 C 12.148438 54.960938 10.492188 53.308594 10.492188 51.277344 C 10.492188 48.628906 13.21875 46.839844 15.644531 47.894531 C 16.121094 48.101562 16.671875 47.882812 16.878906 47.410156 C 17.085938 46.933594 16.867188 46.382812 16.394531 46.175781 C 12.726562 44.582031 8.617188 47.285156 8.617188 51.273438 C 8.617188 54.339844 11.113281 56.835938 14.179688 56.835938 C 17.597656 56.835938 20.246094 53.75 19.65625 50.328125 C 19.570312 49.820312 19.085938 49.476562 18.574219 49.5625 Z M 18.574219 49.5625 "/>
</g>
</svg>
