<svg height="512" viewBox="0 0 64 64" width="512" xmlns="http://www.w3.org/2000/svg" xmlns:xlink="http://www.w3.org/1999/xlink"><linearGradient id="linear-gradient" gradientUnits="userSpaceOnUse" x1="32" x2="32" y1="1.304" y2="63.304"><stop offset="0" stop-color="#ffe100"/><stop offset="1" stop-color="#f98900"/></linearGradient><linearGradient id="linear-gradient-2" gradientUnits="userSpaceOnUse" x1="43" x2="43" y1="29.725" y2="20.193"><stop offset=".005" stop-color="#414d4d"/><stop offset=".206" stop-color="#3a4545"/><stop offset=".522" stop-color="#272e2e"/><stop offset=".914" stop-color="#080909"/><stop offset="1"/></linearGradient><linearGradient id="linear-gradient-3" x1="21" x2="21" xlink:href="#linear-gradient-2" y1="29.856" y2="20.875"/><g id="_12-Slightly_Frowning_Face" data-name="12-Slightly Frowning Face"><path d="m32 63c-27.7 0-31.038-24-31-30v-2c-.038-6 3.3-30 31-30 27.7 0 31.038 24 31 30v2c.038 6-3.3 30-31 30z" fill="url(#linear-gradient)"/><ellipse cx="43" cy="25" fill="url(#linear-gradient-2)" rx="3" ry="5"/><ellipse cx="21" cy="25" fill="url(#linear-gradient-3)" rx="3" ry="5"/><g fill="#1d1d1b"><path d="m55.9 12.6c-.5-.667-1.034-1.315-1.59-1.926l1.478-1.347c.6.659 1.176 1.357 1.713 2.074z"/><path d="m7.318 53.636c-7.187-8.727-7.326-19.449-7.318-20.642v-1.994c-.033-4.954 1.83-15.28 9.022-22.521 5.589-5.626 13.32-8.479 22.978-8.479 8.913 0 16.2 2.439 21.671 7.249l-1.32 1.5c-5.092-4.478-11.939-6.749-20.351-6.749-9.1 0-16.359 2.654-21.559 7.889-6.729 6.774-8.472 16.453-8.441 21.104v2.007a32.612 32.612 0 0 0 6.861 19.364z"/><path d="m32 64c-9.5 0-17.132-2.76-22.7-8.2l1.4-1.43c5.18 5.062 12.346 7.63 21.3 7.63 9.1 0 16.359-2.654 21.559-7.889 6.729-6.774 8.472-16.453 8.441-21.1v-2.121a33.509 33.509 0 0 0 -4.789-16.362l1.7-1.056a35.483 35.483 0 0 1 5.089 17.418v2.11c.033 4.954-1.83 15.28-9.022 22.521-5.589 5.626-13.32 8.479-22.978 8.479z"/><path d="m43 31c-2.243 0-4-2.636-4-6s1.757-6 4-6 4 2.636 4 6-1.757 6-4 6zm0-10c-.944 0-2 1.71-2 4s1.056 4 2 4 2-1.71 2-4-1.056-4-2-4z"/><path d="m21 31c-2.243 0-4-2.636-4-6s1.757-6 4-6 4 2.636 4 6-1.757 6-4 6zm0-10c-.944 0-2 1.71-2 4s1.056 4 2 4 2-1.71 2-4-1.056-4-2-4z"/><path d="m19.961 48.277-1.924-.548c.047-.165 1.192-4.058 6.1-6.73a16.386 16.386 0 0 1 15.732 0c4.905 2.672 6.05 6.565 6.1 6.73l-1.926.542c-.037-.127-1-3.268-5.128-5.515a14.383 14.383 0 0 0 -13.818 0c-4.133 2.244-5.097 5.388-5.136 5.521z"/></g></g></svg>