<?xml version="1.0" encoding="UTF-8"?>
<svg xmlns="http://www.w3.org/2000/svg" xmlns:xlink="http://www.w3.org/1999/xlink" width="64px" height="64px" viewBox="0 0 64 64" version="1.1">
<g id="surface1">
<path style=" stroke:none;fill-rule:nonzero;fill:rgb(31.372549%,45.882353%,55.294118%);fill-opacity:1;" d="M 38.828125 57.703125 L 38.828125 59.300781 C 38.828125 59.441406 38.820312 59.582031 38.804688 59.71875 C 38.597656 61.597656 37.003906 63.058594 35.070312 63.058594 L 29.304688 63.058594 C 27.371094 63.058594 25.777344 61.597656 25.570312 59.71875 C 25.554688 59.582031 25.546875 59.441406 25.546875 59.300781 L 25.546875 57.703125 C 26.046875 57.925781 26.597656 58.050781 27.175781 58.050781 L 37.199219 58.050781 C 37.78125 58.050781 38.332031 57.925781 38.828125 57.703125 Z M 38.828125 57.703125 "/>
<path style=" stroke:none;fill-rule:nonzero;fill:rgb(100%,90.588235%,78.823529%);fill-opacity:1;" d="M 32 8.214844 C 31.480469 8.214844 31.058594 7.792969 31.058594 7.273438 L 31.058594 0.941406 C 31.058594 0.421875 31.480469 0 32 0 C 32.519531 0 32.941406 0.421875 32.941406 0.941406 L 32.941406 7.273438 C 32.941406 7.792969 32.519531 8.214844 32 8.214844 Z M 32 8.214844 "/>
<path style=" stroke:none;fill-rule:nonzero;fill:rgb(100%,90.588235%,78.823529%);fill-opacity:1;" d="M 15.132812 15.199219 C 14.894531 15.199219 14.652344 15.109375 14.46875 14.925781 L 9.988281 10.445312 C 9.621094 10.078125 9.621094 9.484375 9.988281 9.117188 C 10.355469 8.75 10.953125 8.75 11.316406 9.117188 L 15.796875 13.597656 C 16.164062 13.964844 16.164062 14.558594 15.796875 14.925781 C 15.613281 15.109375 15.375 15.199219 15.132812 15.199219 Z M 15.132812 15.199219 "/>
<path style=" stroke:none;fill-rule:nonzero;fill:rgb(100%,90.588235%,78.823529%);fill-opacity:1;" d="M 8.148438 32.066406 L 1.8125 32.066406 C 1.292969 32.066406 0.871094 31.648438 0.871094 31.128906 C 0.871094 30.609375 1.292969 30.1875 1.8125 30.1875 L 8.148438 30.1875 C 8.664062 30.1875 9.085938 30.609375 9.085938 31.128906 C 9.085938 31.648438 8.664062 32.066406 8.148438 32.066406 Z M 8.148438 32.066406 "/>
<path style=" stroke:none;fill-rule:nonzero;fill:rgb(100%,90.588235%,78.823529%);fill-opacity:1;" d="M 10.652344 53.414062 C 10.414062 53.414062 10.171875 53.320312 9.988281 53.136719 C 9.621094 52.769531 9.621094 52.175781 9.988281 51.808594 L 14.46875 47.328125 C 14.835938 46.964844 15.429688 46.964844 15.796875 47.328125 C 16.164062 47.695312 16.164062 48.292969 15.796875 48.660156 L 11.316406 53.136719 C 11.132812 53.320312 10.894531 53.414062 10.652344 53.414062 Z M 10.652344 53.414062 "/>
<path style=" stroke:none;fill-rule:nonzero;fill:rgb(100%,90.588235%,78.823529%);fill-opacity:1;" d="M 53.347656 53.414062 C 53.105469 53.414062 52.863281 53.320312 52.679688 53.136719 L 48.203125 48.660156 C 47.835938 48.292969 47.835938 47.695312 48.203125 47.328125 C 48.570312 46.964844 49.164062 46.964844 49.53125 47.328125 L 54.011719 51.808594 C 54.378906 52.175781 54.378906 52.769531 54.011719 53.136719 C 53.828125 53.320312 53.585938 53.414062 53.347656 53.414062 Z M 53.347656 53.414062 "/>
<path style=" stroke:none;fill-rule:nonzero;fill:rgb(100%,90.588235%,78.823529%);fill-opacity:1;" d="M 62.1875 32.066406 L 55.851562 32.066406 C 55.335938 32.066406 54.914062 31.648438 54.914062 31.128906 C 54.914062 30.609375 55.335938 30.1875 55.851562 30.1875 L 62.1875 30.1875 C 62.707031 30.1875 63.128906 30.609375 63.128906 31.128906 C 63.128906 31.648438 62.707031 32.066406 62.1875 32.066406 Z M 62.1875 32.066406 "/>
<path style=" stroke:none;fill-rule:nonzero;fill:rgb(100%,90.588235%,78.823529%);fill-opacity:1;" d="M 48.867188 15.199219 C 48.625 15.199219 48.386719 15.109375 48.203125 14.925781 C 47.835938 14.558594 47.835938 13.964844 48.203125 13.597656 L 52.679688 9.117188 C 53.046875 8.75 53.644531 8.75 54.011719 9.117188 C 54.378906 9.484375 54.378906 10.078125 54.011719 10.445312 L 49.53125 14.925781 C 49.347656 15.109375 49.105469 15.199219 48.867188 15.199219 Z M 48.867188 15.199219 "/>
<path style=" stroke:none;fill-rule:nonzero;fill:rgb(16.862745%,34.901961%,49.803922%);fill-opacity:1;" d="M 32.1875 56.796875 C 32.1875 56.796875 26.046875 57.925781 25.546875 57.703125 L 25.546875 59.300781 C 25.546875 59.441406 25.554688 59.582031 25.570312 59.71875 C 25.777344 61.597656 27.371094 63.058594 29.304688 63.058594 L 30.933594 63.058594 C 29.300781 63.058594 27.910156 62.015625 27.390625 60.558594 C 27.304688 60.3125 27.484375 60.054688 27.746094 60.054688 L 37.199219 60.054688 C 37.769531 60.054688 38.316406 59.933594 38.804688 59.71875 C 38.820312 59.582031 38.828125 59.441406 38.828125 59.300781 L 38.828125 57.703125 C 38.332031 57.925781 32.1875 56.796875 32.1875 56.796875 Z M 32.1875 56.796875 "/>
<path style=" stroke:none;fill-rule:nonzero;fill:rgb(31.372549%,45.882353%,55.294118%);fill-opacity:1;" d="M 41.207031 54.039062 C 41.207031 55.671875 40.230469 57.082031 38.828125 57.703125 C 38.332031 57.925781 37.78125 58.050781 37.199219 58.050781 L 27.175781 58.050781 C 26.597656 58.050781 26.046875 57.925781 25.546875 57.703125 C 24.144531 57.082031 23.167969 55.671875 23.167969 54.039062 C 23.167969 54.039062 23.109375 48.183594 23.097656 48.03125 L 23.097656 48.027344 L 32.1875 46.773438 L 41.175781 48.027344 Z M 41.207031 54.039062 "/>
<path style=" stroke:none;fill-rule:nonzero;fill:rgb(16.862745%,34.901961%,49.803922%);fill-opacity:1;" d="M 30.308594 58.050781 L 27.175781 58.050781 C 26.597656 58.050781 26.046875 57.925781 25.546875 57.703125 C 24.144531 57.082031 23.167969 55.671875 23.167969 54.039062 C 23.167969 54.039062 23.109375 48.183594 23.097656 48.03125 L 23.097656 48.027344 L 26.230469 48.027344 L 26.230469 48.03125 C 26.242188 48.183594 26.300781 54.039062 26.300781 54.039062 C 26.300781 55.671875 27.277344 57.082031 28.679688 57.703125 C 29.175781 57.925781 29.726562 58.050781 30.308594 58.050781 Z M 30.308594 58.050781 "/>
<path style=" stroke:none;fill-rule:nonzero;fill:rgb(16.862745%,34.901961%,49.803922%);fill-opacity:1;" d="M 41.207031 53.976562 L 38.015625 53.976562 C 37.496094 53.976562 37.074219 53.554688 37.074219 53.039062 C 37.074219 52.519531 37.496094 52.097656 38.015625 52.097656 L 41.199219 52.097656 L 41.203125 53.039062 Z M 41.207031 53.976562 "/>
<path style=" stroke:none;fill-rule:nonzero;fill:rgb(16.862745%,34.901961%,49.803922%);fill-opacity:1;" d="M 34.570312 53.039062 C 34.570312 53.554688 34.148438 53.976562 33.628906 53.976562 L 23.167969 53.976562 L 23.144531 52.097656 L 33.628906 52.097656 C 34.148438 52.097656 34.570312 52.519531 34.570312 53.039062 Z M 34.570312 53.039062 "/>
<path style=" stroke:none;fill-rule:nonzero;fill:rgb(98.039216%,82.352941%,2.745098%);fill-opacity:1;" d="M 32.015625 11.339844 C 22.339844 11.191406 14.203125 19.621094 14.378906 29.226562 C 14.378906 34.128906 16.316406 38.570312 19.460938 41.800781 C 21.316406 43.707031 22.917969 45.46875 23.097656 48.027344 L 41.175781 48.054688 C 41.277344 45.421875 42.773438 43.644531 44.640625 41.695312 C 47.722656 38.472656 49.621094 34.078125 49.621094 29.226562 C 49.621094 19.351562 41.742188 11.347656 32.015625 11.339844 Z M 32.015625 11.339844 "/>
<path style=" stroke:none;fill-rule:nonzero;fill:rgb(98.039216%,64.705882%,8.235294%);fill-opacity:1;" d="M 41.175781 48.050781 L 41.175781 48.054688 L 23.097656 48.027344 C 22.917969 45.46875 21.316406 43.707031 19.460938 41.800781 C 16.316406 38.570312 14.378906 34.128906 14.378906 29.226562 C 14.203125 19.621094 22.339844 11.191406 32.015625 11.339844 C 32.503906 11.339844 32.988281 11.359375 33.46875 11.398438 C 24.550781 12.179688 17.34375 20.183594 17.507812 29.226562 C 17.507812 34.128906 19.449219 38.570312 22.59375 41.800781 C 24.449219 43.707031 26.050781 45.46875 26.230469 48.027344 Z M 41.175781 48.050781 "/>
<path style=" stroke:none;fill-rule:nonzero;fill:rgb(98.039216%,64.705882%,8.235294%);fill-opacity:1;" d="M 32.441406 38.183594 C 32.066406 38.664062 31.496094 38.957031 30.886719 38.980469 C 30.859375 38.980469 30.835938 38.980469 30.808594 38.980469 C 30.226562 38.980469 29.667969 38.734375 29.277344 38.300781 L 23.386719 31.785156 C 22.621094 30.9375 22.6875 29.632812 23.535156 28.867188 C 24.382812 28.101562 25.6875 28.167969 26.453125 29.015625 L 30.691406 33.699219 L 37.445312 24.996094 C 38.144531 24.097656 39.445312 23.933594 40.347656 24.632812 C 41.25 25.332031 41.410156 26.632812 40.710938 27.535156 Z M 32.441406 38.183594 "/>
<path style=" stroke:none;fill-rule:nonzero;fill:rgb(0%,0%,0%);fill-opacity:1;" d="M 32 8.214844 C 32.519531 8.214844 32.941406 7.792969 32.941406 7.273438 L 32.941406 0.941406 C 32.941406 0.421875 32.519531 0 32 0 C 31.480469 0 31.058594 0.421875 31.058594 0.941406 L 31.058594 7.273438 C 31.058594 7.792969 31.480469 8.214844 32 8.214844 Z M 32 8.214844 "/>
<path style=" stroke:none;fill-rule:nonzero;fill:rgb(0%,0%,0%);fill-opacity:1;" d="M 14.46875 14.925781 C 14.835938 15.292969 15.429688 15.292969 15.796875 14.925781 C 16.164062 14.558594 16.164062 13.964844 15.796875 13.597656 L 11.316406 9.117188 C 10.953125 8.75 10.355469 8.75 9.988281 9.117188 C 9.621094 9.484375 9.621094 10.078125 9.988281 10.445312 Z M 14.46875 14.925781 "/>
<path style=" stroke:none;fill-rule:nonzero;fill:rgb(0%,0%,0%);fill-opacity:1;" d="M 8.148438 30.1875 L 1.8125 30.1875 C 1.292969 30.1875 0.871094 30.609375 0.871094 31.128906 C 0.871094 31.648438 1.292969 32.066406 1.8125 32.066406 L 8.148438 32.066406 C 8.664062 32.066406 9.085938 31.648438 9.085938 31.128906 C 9.085938 30.609375 8.664062 30.1875 8.148438 30.1875 Z M 8.148438 30.1875 "/>
<path style=" stroke:none;fill-rule:nonzero;fill:rgb(0%,0%,0%);fill-opacity:1;" d="M 14.46875 47.328125 L 9.988281 51.808594 C 9.621094 52.175781 9.621094 52.769531 9.988281 53.136719 C 10.355469 53.503906 10.953125 53.503906 11.316406 53.136719 L 15.796875 48.660156 C 16.164062 48.292969 16.164062 47.695312 15.796875 47.328125 C 15.429688 46.964844 14.835938 46.964844 14.46875 47.328125 Z M 14.46875 47.328125 "/>
<path style=" stroke:none;fill-rule:nonzero;fill:rgb(0%,0%,0%);fill-opacity:1;" d="M 49.53125 47.328125 C 49.164062 46.964844 48.570312 46.964844 48.203125 47.328125 C 47.835938 47.695312 47.835938 48.292969 48.203125 48.660156 L 52.683594 53.136719 C 53.046875 53.503906 53.644531 53.503906 54.011719 53.136719 C 54.378906 52.769531 54.378906 52.175781 54.011719 51.808594 Z M 49.53125 47.328125 "/>
<path style=" stroke:none;fill-rule:nonzero;fill:rgb(0%,0%,0%);fill-opacity:1;" d="M 62.1875 30.1875 L 55.851562 30.1875 C 55.335938 30.1875 54.914062 30.609375 54.914062 31.128906 C 54.914062 31.648438 55.335938 32.066406 55.851562 32.066406 L 62.1875 32.066406 C 62.707031 32.066406 63.128906 31.648438 63.128906 31.128906 C 63.128906 30.609375 62.707031 30.1875 62.1875 30.1875 Z M 62.1875 30.1875 "/>
<path style=" stroke:none;fill-rule:nonzero;fill:rgb(0%,0%,0%);fill-opacity:1;" d="M 52.683594 9.117188 L 48.203125 13.597656 C 47.835938 13.964844 47.835938 14.558594 48.203125 14.925781 C 48.570312 15.292969 49.164062 15.292969 49.53125 14.925781 L 54.011719 10.445312 C 54.378906 10.078125 54.378906 9.484375 54.011719 9.117188 C 53.644531 8.75 53.046875 8.75 52.683594 9.117188 Z M 52.683594 9.117188 "/>
<path style=" stroke:none;fill-rule:nonzero;fill:rgb(0%,0%,0%);fill-opacity:1;" d="M 50.5625 29.226562 C 50.5625 18.84375 42.234375 10.398438 32 10.398438 C 28.414062 10.398438 24.933594 11.4375 21.9375 13.402344 C 19.019531 15.316406 16.695312 18.007812 15.210938 21.183594 C 14.992188 21.652344 15.195312 22.214844 15.667969 22.433594 C 16.136719 22.652344 16.695312 22.449219 16.914062 21.976562 C 19.664062 16.085938 25.585938 12.277344 32 12.277344 C 41.199219 12.277344 48.683594 19.882812 48.683594 29.226562 C 48.683594 33.667969 47.003906 37.863281 43.960938 41.046875 C 42.203125 42.878906 40.710938 44.632812 40.324219 47.085938 L 23.921875 47.085938 C 23.4375 44.539062 21.699219 42.75 20.136719 41.144531 C 17.027344 37.953125 15.316406 33.71875 15.316406 29.226562 C 15.316406 28.121094 15.421875 27.011719 15.632812 25.933594 C 15.730469 25.421875 15.398438 24.929688 14.886719 24.832031 C 14.378906 24.730469 13.886719 25.066406 13.785156 25.574219 C 13.554688 26.769531 13.4375 28 13.4375 29.226562 C 13.4375 34.210938 15.339844 38.910156 18.789062 42.457031 C 20.769531 44.492188 22.171875 46.117188 22.171875 48.5 C 22.171875 48.507812 22.171875 48.515625 22.175781 48.527344 L 22.226562 54.039062 C 22.226562 55.828125 23.183594 57.398438 24.609375 58.269531 L 24.609375 59.300781 C 24.609375 61.890625 26.714844 64 29.304688 64 L 35.070312 64 C 37.660156 64 39.769531 61.890625 39.769531 59.300781 L 39.769531 58.269531 C 41.195312 57.398438 42.148438 55.828125 42.148438 54.039062 C 42.148438 54.039062 42.140625 47.898438 42.128906 47.835938 C 42.308594 45.660156 43.628906 44.109375 45.316406 42.34375 C 48.699219 38.8125 50.5625 34.152344 50.5625 29.226562 Z M 37.886719 59.300781 C 37.886719 60.855469 36.625 62.121094 35.070312 62.121094 L 29.304688 62.121094 C 27.753906 62.121094 26.488281 60.855469 26.488281 59.300781 L 26.488281 58.941406 C 26.710938 58.972656 26.941406 58.988281 27.175781 58.988281 L 37.199219 58.988281 C 37.433594 58.988281 37.664062 58.972656 37.886719 58.941406 Z M 37.199219 57.109375 L 27.175781 57.109375 C 25.484375 57.109375 24.105469 55.730469 24.105469 54.039062 L 24.105469 53.976562 L 33.628906 53.976562 C 34.148438 53.976562 34.570312 53.554688 34.570312 53.039062 C 34.570312 52.519531 34.148438 52.097656 33.628906 52.097656 L 24.105469 52.097656 L 24.105469 48.964844 L 40.238281 48.964844 L 40.269531 52.097656 L 38.015625 52.097656 C 37.496094 52.097656 37.074219 52.519531 37.074219 53.039062 C 37.074219 53.554688 37.496094 53.976562 38.015625 53.976562 L 40.269531 53.976562 L 40.269531 54.039062 C 40.269531 55.730469 38.890625 57.109375 37.199219 57.109375 Z M 37.199219 57.109375 "/>
<path style=" stroke:none;fill-rule:nonzero;fill:rgb(0%,0%,0%);fill-opacity:1;" d="M 38.109375 29.351562 C 37.789062 29.761719 37.863281 30.351562 38.273438 30.671875 C 38.683594 30.988281 39.273438 30.914062 39.59375 30.503906 L 41.453125 28.109375 C 41.945312 27.476562 42.160156 26.6875 42.0625 25.890625 C 41.960938 25.09375 41.558594 24.382812 40.921875 23.890625 C 40.289062 23.398438 39.5 23.179688 38.703125 23.28125 C 37.90625 23.382812 37.195312 23.785156 36.703125 24.421875 L 30.636719 32.238281 L 27.152344 28.382812 C 26.039062 27.152344 24.132812 27.058594 22.90625 28.167969 C 22.308594 28.707031 21.957031 29.445312 21.917969 30.25 C 21.878906 31.050781 22.152344 31.820312 22.691406 32.417969 L 28.578125 38.929688 C 29.765625 40.304688 32.105469 40.222656 33.183594 38.757812 L 36.902344 33.96875 C 37.222656 33.558594 37.148438 32.96875 36.738281 32.652344 C 36.328125 32.332031 35.738281 32.40625 35.417969 32.816406 L 31.699219 37.605469 C 31.296875 38.15625 30.414062 38.1875 29.972656 37.671875 L 24.085938 31.15625 C 23.667969 30.695312 23.703125 29.980469 24.164062 29.5625 C 24.625 29.148438 25.339844 29.183594 25.757812 29.644531 L 29.992188 34.328125 C 30.363281 34.757812 31.09375 34.734375 31.433594 34.273438 L 38.1875 25.574219 C 38.550781 25.085938 39.300781 24.992188 39.769531 25.375 C 40.257812 25.738281 40.351562 26.484375 39.96875 26.957031 Z M 38.109375 29.351562 "/>
</g>
</svg>
